<svg 
 xmlns="http://www.w3.org/2000/svg"
 xmlns:xlink="http://www.w3.org/1999/xlink"
 width="13px" height="13px">
<path fill-rule="evenodd"  fill="rgb(255, 255, 255)"
 d="M12.500,7.000 L7.000,7.000 L7.000,12.500 C7.000,12.776 6.776,13.000 6.500,13.000 C6.224,13.000 6.000,12.776 6.000,12.500 L6.000,7.000 L0.500,7.000 C0.224,7.000 -0.000,6.776 -0.000,6.500 C-0.000,6.224 0.224,6.000 0.500,6.000 L6.000,6.000 L6.000,0.500 C6.000,0.224 6.224,-0.000 6.500,-0.000 C6.776,-0.000 7.000,0.224 7.000,0.500 L7.000,6.000 L12.500,6.000 C12.776,6.000 13.000,6.224 13.000,6.500 C13.000,6.776 12.776,7.000 12.500,7.000 Z"/>
</svg>
