<svg 
 xmlns="http://www.w3.org/2000/svg"
 xmlns:xlink="http://www.w3.org/1999/xlink"
 width="32px" height="32px">
<path fill-rule="evenodd"  fill="rgb(87, 168, 249)"
 d="M18.380,20.987 C18.380,20.987 16.001,22.891 15.135,23.390 C14.374,23.829 13.660,24.120 13.024,24.322 C12.387,24.524 11.829,24.652 11.350,24.704 C10.871,24.757 10.474,24.790 10.160,24.806 C10.130,24.820 10.092,24.828 10.047,24.828 L9.688,24.828 C8.865,24.828 8.090,24.730 7.364,24.535 C6.637,24.341 6.004,24.052 5.465,23.671 C4.926,23.289 4.499,22.809 4.185,22.233 C3.871,21.656 3.714,20.986 3.714,20.223 C3.729,19.564 3.908,18.965 4.252,18.426 C4.597,17.887 5.043,17.430 5.589,17.055 C6.136,16.681 6.742,16.397 7.409,16.202 C8.075,16.007 8.745,15.925 9.419,15.955 C10.078,15.985 10.714,16.063 11.328,16.190 C11.942,16.318 12.531,16.471 13.091,16.651 C13.653,16.831 14.184,17.025 14.686,17.235 C15.188,17.445 15.663,17.647 16.112,17.842 C16.292,17.917 16.479,17.992 16.674,18.067 C16.868,18.142 17.070,18.217 17.280,18.292 C17.715,17.738 18.081,17.195 18.381,16.663 C18.680,16.131 18.927,15.645 19.122,15.203 C19.317,14.761 19.467,14.391 19.572,14.091 C19.676,13.792 19.743,13.583 19.773,13.462 L10.025,13.462 L10.025,12.384 L14.630,12.384 L14.630,9.892 L8.228,9.892 L8.228,8.813 L14.630,8.813 L14.630,6.792 C14.630,6.657 14.704,6.548 14.854,6.466 C15.004,6.384 15.176,6.327 15.371,6.298 C15.595,6.253 15.850,6.230 16.134,6.230 L17.863,6.230 L17.863,8.813 L24.444,8.813 L24.444,9.892 L17.863,9.892 L17.863,12.384 L23.093,12.384 C23.094,12.377 23.095,12.369 23.096,12.362 L23.096,12.384 L23.093,12.384 C22.987,13.051 22.809,13.755 22.557,14.496 C22.348,15.140 22.037,15.873 21.625,16.697 C21.213,17.520 20.671,18.367 19.997,19.235 C19.997,19.235 25.151,21.701 30.593,22.569 C31.497,20.565 32.000,18.341 32.000,16.000 C32.000,7.163 24.836,-0.000 16.000,-0.000 C7.163,-0.000 -0.000,7.163 -0.000,16.000 C-0.000,24.836 7.163,32.000 16.000,32.000 C21.481,32.000 26.318,29.243 29.202,25.041 C26.272,24.403 23.159,23.110 18.380,20.987 L18.380,20.987 ZM5.802,20.268 C5.742,23.014 8.848,23.217 9.327,23.232 C10.910,23.281 12.189,22.683 13.184,22.092 C14.180,21.500 15.804,19.973 15.864,19.920 C15.924,19.867 15.984,19.812 16.044,19.752 C15.609,19.512 15.182,19.291 14.763,19.089 C14.345,18.887 12.214,17.743 10.324,17.547 C6.744,17.176 5.820,19.433 5.802,20.268 L5.802,20.268 Z"/>
</svg>
