<svg 
 xmlns="http://www.w3.org/2000/svg"
 xmlns:xlink="http://www.w3.org/1999/xlink"
 width="14px" height="14px">
<path fill-rule="evenodd"  fill="rgb(255, 255, 255)"
 d="M12.000,14.000 L2.000,14.000 C0.895,14.000 -0.000,13.105 -0.000,12.000 L-0.000,2.000 C-0.000,0.895 0.895,-0.000 2.000,-0.000 L12.000,-0.000 C13.105,-0.000 14.000,0.895 14.000,2.000 L14.000,4.000 L14.000,6.000 L14.000,8.000 L14.000,10.000 L14.000,12.000 C14.000,13.105 13.105,14.000 12.000,14.000 ZM13.000,5.000 L11.000,5.000 C10.448,5.000 9.000,5.625 9.000,7.000 C9.000,8.375 10.448,9.000 11.000,9.000 L13.000,9.000 L13.000,5.000 ZM11.000,10.000 C9.343,10.000 8.000,8.657 8.000,7.000 C8.000,5.343 9.343,4.000 11.000,4.000 L13.000,4.000 L13.000,2.000 C13.000,1.448 12.552,1.000 12.000,1.000 L2.000,1.000 C1.448,1.000 1.000,1.448 1.000,2.000 L1.000,12.000 C1.000,12.552 1.448,13.000 2.000,13.000 L12.000,13.000 C12.552,13.000 13.000,12.552 13.000,12.000 L13.000,10.000 L11.000,10.000 Z"/>
</svg>
