<svg xmlns="http://www.w3.org/2000/svg" xmlns:xlink="http://www.w3.org/1999/xlink" preserveAspectRatio="xMidYMid" width="31" height="14" viewBox="0 0 31 14">
  <defs>
    <style>
      .cls-1 {
        fill: #999;
        fill-rule: evenodd;
      }
    </style>
  </defs>
  <path d="M13.500,1.001 L12.001,1.001 L12.001,0.501 C12.001,0.225 11.778,0.001 11.502,0.001 C11.226,0.001 11.002,0.225 11.002,0.501 L11.002,1.001 L5.007,1.001 L5.007,0.501 C5.007,0.225 4.783,0.001 4.507,0.001 C4.231,0.001 4.007,0.225 4.007,0.501 L4.007,1.001 L2.508,1.001 C1.131,1.001 0.010,2.121 0.010,3.499 L0.010,11.493 C0.010,12.870 1.131,13.991 2.508,13.991 L13.500,13.991 C14.878,13.991 15.998,12.870 15.998,11.493 L15.998,3.499 C15.998,2.121 14.878,1.001 13.500,1.001 L13.500,1.001 ZM14.999,11.493 C14.999,12.319 14.327,12.992 13.500,12.992 L2.508,12.992 C1.682,12.992 1.009,12.319 1.009,11.493 L1.009,3.499 C1.009,2.672 1.682,2.000 2.508,2.000 L4.007,2.000 L4.007,2.999 C4.007,3.275 4.231,3.499 4.507,3.499 C4.783,3.499 5.007,3.275 5.007,2.999 L5.007,2.000 L11.002,2.000 L11.002,2.999 C11.002,3.275 11.226,3.499 11.502,3.499 C11.778,3.499 12.001,3.275 12.001,2.999 L12.001,2.000 L13.500,2.000 C14.327,2.000 14.999,2.672 14.999,3.499 L14.999,11.493 ZM4.756,4.998 L3.257,4.998 C2.981,4.998 2.758,5.221 2.758,5.497 C2.758,5.773 2.981,5.997 3.257,5.997 L4.756,5.997 C5.032,5.997 5.256,5.773 5.256,5.497 C5.256,5.221 5.032,4.998 4.756,4.998 L4.756,4.998 ZM8.754,4.998 L7.255,4.998 C6.979,4.998 6.755,5.221 6.755,5.497 C6.755,5.773 6.979,5.997 7.255,5.997 L8.754,5.997 C9.030,5.997 9.253,5.773 9.253,5.497 C9.253,5.221 9.030,4.998 8.754,4.998 L8.754,4.998 ZM12.751,4.998 L11.252,4.998 C10.977,4.998 10.753,5.221 10.753,5.497 C10.753,5.773 10.977,5.997 11.252,5.997 L12.751,5.997 C13.027,5.997 13.251,5.773 13.251,5.497 C13.251,5.221 13.027,4.998 12.751,4.998 L12.751,4.998 ZM4.756,6.996 L3.257,6.996 C2.981,6.996 2.758,7.220 2.758,7.496 C2.758,7.772 2.981,7.995 3.257,7.995 L4.756,7.995 C5.032,7.995 5.256,7.772 5.256,7.496 C5.256,7.220 5.032,6.996 4.756,6.996 L4.756,6.996 ZM8.754,6.996 L7.255,6.996 C6.979,6.996 6.755,7.220 6.755,7.496 C6.755,7.772 6.979,7.995 7.255,7.995 L8.754,7.995 C9.030,7.995 9.253,7.772 9.253,7.496 C9.253,7.220 9.030,6.996 8.754,6.996 L8.754,6.996 ZM12.751,6.996 L11.252,6.996 C10.977,6.996 10.753,7.220 10.753,7.496 C10.753,7.772 10.977,7.995 11.252,7.995 L12.751,7.995 C13.027,7.995 13.251,7.772 13.251,7.496 C13.251,7.220 13.027,6.996 12.751,6.996 L12.751,6.996 ZM4.756,8.995 L3.257,8.995 C2.981,8.995 2.758,9.218 2.758,9.494 C2.758,9.770 2.981,9.994 3.257,9.994 L4.756,9.994 C5.032,9.994 5.256,9.770 5.256,9.494 C5.256,9.218 5.032,8.995 4.756,8.995 L4.756,8.995 ZM8.754,8.995 L7.255,8.995 C6.979,8.995 6.755,9.218 6.755,9.494 C6.755,9.770 6.979,9.994 7.255,9.994 L8.754,9.994 C9.030,9.994 9.253,9.770 9.253,9.494 C9.253,9.218 9.030,8.995 8.754,8.995 L8.754,8.995 ZM12.751,8.995 L11.252,8.995 C10.977,8.995 10.753,9.218 10.753,9.494 C10.753,9.770 10.977,9.994 11.252,9.994 L12.751,9.994 C13.027,9.994 13.251,9.770 13.251,9.494 C13.251,9.218 13.027,8.995 12.751,8.995 L12.751,8.995 Z" transform="translate(7.5)" class="cls-1"/>
</svg>
