<svg xmlns="http://www.w3.org/2000/svg" width="20" height="20" viewBox="0 0 20 20">
  <metadata><?xpacket begin="﻿" id="W5M0MpCehiHzreSzNTczkc9d"?>
<x:xmpmeta xmlns:x="adobe:ns:meta/" x:xmptk="Adobe XMP Core 5.6-c142 79.160924, 2017/07/13-01:06:39        ">
   <rdf:RDF xmlns:rdf="http://www.w3.org/1999/02/22-rdf-syntax-ns#">
      <rdf:Description rdf:about=""/>
   </rdf:RDF>
</x:xmpmeta>
                                                                                                    
                                                                                                    
                                                                                                    
                                                                                                    
                                                                                                    
                                                                                                    
                                                                                                    
                                                                                                    
                                                                                                    
                                                                                                    
                                                                                                    
                                                                                                    
                                                                                                    
                                                                                                    
                                                                                                    
                                                                                                    
                                                                                                    
                                                                                                    
                                                                                                    
                                                                                                    
                           
<?xpacket end="w"?></metadata>
<defs>
    <style>
      .cls-1 {
        fill: #acacac;
        fill-rule: evenodd;
      }
    </style>
  </defs>
  <path id="calendar_home_nor" class="cls-1" d="M1137,282h-2v2h2v-2Zm2-9h-6v1h6v-1h0Zm2,9h-2v2h2v-2h0Zm0-3h-2v2h2v-2h0Zm-6,8h2v-2h-2v2h0Zm2-8h-2v2h2v-2h0Zm-6,8h2v-2h-2v2h0Zm13-14h-2v1h1c0.58,0,2,.419,2,1v14a0.966,0.966,0,0,1-1,1h-16a0.966,0.966,0,0,1-1-1V275a0.966,0.966,0,0,1,1-1h2v-1h-2a1.931,1.931,0,0,0-2,2v13.895a2.1,2.1,0,0,0,2.1,2.105h15.79a2.1,2.1,0,0,0,2.11-2.105V275a1.931,1.931,0,0,0-2-2h0Zm-11,6h-2v2h2v-2h0Zm0,3h-2v2h2v-2h0Zm8,3h-2v2h2v-2h0Zm-9.5-14a0.5,0.5,0,0,1,.5.5v3a0.5,0.5,0,0,1-1,0v-3A0.5,0.5,0,0,1,1131.5,271Zm9,0a0.5,0.5,0,0,1,.5.5v3a0.5,0.5,0,0,1-1,0v-3A0.5,0.5,0,0,1,1140.5,271Z" transform="translate(-1126 -271)"/>
</svg>
