<svg 
 xmlns="http://www.w3.org/2000/svg"
 xmlns:xlink="http://www.w3.org/1999/xlink"
 width="21px" height="19px">
<path fill-rule="evenodd"  fill="rgb(240, 123, 87)"
 d="M19.439,18.309 L17.507,18.827 C16.974,18.970 16.426,18.653 16.283,18.120 L16.024,17.154 L19.888,16.118 L20.146,17.084 C20.289,17.618 19.973,18.166 19.439,18.309 ZM13.177,6.529 C13.034,5.995 13.350,5.447 13.884,5.304 L15.816,4.786 C16.349,4.643 16.898,4.960 17.040,5.493 L19.629,15.152 L15.765,16.188 L13.177,6.529 ZM11.000,19.000 L9.000,19.000 C8.448,19.000 8.000,18.552 8.000,18.000 L8.000,3.000 L12.000,3.000 L12.000,18.000 C12.000,18.552 11.552,19.000 11.000,19.000 ZM8.000,1.000 C8.000,0.448 8.448,-0.000 9.000,-0.000 L11.000,-0.000 C11.552,-0.000 12.000,0.448 12.000,1.000 L12.000,2.000 L8.000,2.000 L8.000,1.000 ZM5.000,19.000 L1.000,19.000 C0.448,19.000 -0.000,18.552 -0.000,18.000 L-0.000,17.000 L6.000,17.000 L6.000,18.000 C6.000,18.552 5.552,19.000 5.000,19.000 ZM-0.000,14.000 L6.000,14.000 L6.000,16.000 L-0.000,16.000 L-0.000,14.000 ZM-0.000,7.000 L6.000,7.000 L6.000,13.000 L-0.000,13.000 L-0.000,7.000 ZM-0.000,4.000 C-0.000,3.448 0.448,3.000 1.000,3.000 L5.000,3.000 C5.552,3.000 6.000,3.448 6.000,4.000 L6.000,5.000 L-0.000,5.000 L-0.000,4.000 Z"/>
</svg>
