<svg 
 xmlns="http://www.w3.org/2000/svg"
 xmlns:xlink="http://www.w3.org/1999/xlink"
 width="25px" height="24px">
<path fill-rule="evenodd"  fill="rgb(240, 123, 87)"
 d="M24.000,24.000 L22.000,24.000 L20.000,24.000 L16.000,24.000 L14.000,24.000 L10.000,24.000 L8.000,24.000 L4.000,24.000 L2.000,24.000 L1.000,24.000 C0.448,24.000 -0.000,23.552 -0.000,23.000 C-0.000,22.448 0.448,22.000 1.000,22.000 L1.000,17.000 C1.000,16.448 1.448,16.000 2.000,16.000 L4.000,16.000 C4.552,16.000 5.000,16.448 5.000,17.000 L5.000,22.000 L7.000,22.000 L7.000,14.000 C7.000,13.448 7.448,13.000 8.000,13.000 L10.000,13.000 C10.552,13.000 11.000,13.448 11.000,14.000 L11.000,22.000 L13.000,22.000 L13.000,17.000 C13.000,16.448 13.448,16.000 14.000,16.000 L16.000,16.000 C16.552,16.000 17.000,16.448 17.000,17.000 L17.000,22.000 L19.000,22.000 L19.000,9.000 C19.000,8.448 19.448,8.000 20.000,8.000 L22.000,8.000 C22.552,8.000 23.000,8.448 23.000,9.000 L23.000,22.000 L24.000,22.000 C24.552,22.000 25.000,22.448 25.000,23.000 C25.000,23.552 24.552,24.000 24.000,24.000 ZM20.070,3.936 L14.692,8.254 C14.456,8.482 14.123,8.578 13.804,8.506 L8.625,7.368 L3.348,11.773 C3.166,11.926 2.944,12.000 2.724,12.000 C2.441,12.000 2.160,11.878 1.966,11.640 C1.621,11.218 1.680,10.593 2.098,10.244 L7.743,5.532 C7.975,5.338 8.284,5.263 8.576,5.328 L13.711,6.456 L18.710,2.501 L17.274,0.984 L21.658,1.083 L21.561,5.511 L20.070,3.936 Z"/>
</svg>
