<svg xmlns="http://www.w3.org/2000/svg" width="15" height="14.938" viewBox="0 0 15 14.938">
  <metadata><?xpacket begin="﻿" id="W5M0MpCehiHzreSzNTczkc9d"?>
<x:xmpmeta xmlns:x="adobe:ns:meta/" x:xmptk="Adobe XMP Core 5.6-c138 79.159824, 2016/09/14-01:09:01        ">
   <rdf:RDF xmlns:rdf="http://www.w3.org/1999/02/22-rdf-syntax-ns#">
      <rdf:Description rdf:about=""/>
   </rdf:RDF>
</x:xmpmeta>
                                                                                                    
                                                                                                    
                                                                                                    
                                                                                                    
                                                                                                    
                                                                                                    
                                                                                                    
                                                                                                    
                                                                                                    
                                                                                                    
                                                                                                    
                                                                                                    
                                                                                                    
                                                                                                    
                                                                                                    
                                                                                                    
                                                                                                    
                                                                                                    
                                                                                                    
                                                                                                    
                           
<?xpacket end="w"?></metadata>
<defs>
    <style>
      .cls-1 {
        fill: #909090;
        fill-rule: evenodd;
      }
    </style>
  </defs>
  <path id="check" class="cls-1" d="M29.5,100h-10A2.5,2.5,0,0,1,17,97.505V90.486a2.5,2.5,0,0,1,2.5-2.5h1.551l-2.1-2.094a0.5,0.5,0,0,1,.707-0.706L22.37,87.9a0.448,0.448,0,0,1,.039.094h4.117a0.448,0.448,0,0,1,.039-0.094l2.71-2.705a0.5,0.5,0,0,1,.707.706l-2.1,2.094H29.5a2.5,2.5,0,0,1,2.5,2.5v7.019A2.5,2.5,0,0,1,29.5,100ZM30,91.486a1.5,1.5,0,0,0-1.5-1.5h-8a1.5,1.5,0,0,0-1.5,1.5v5.019A1.5,1.5,0,0,0,20.5,98h8a1.5,1.5,0,0,0,1.5-1.5V91.486ZM24.084,95.94a0.5,0.5,0,0,1-.707,0l-1.65-1.647a0.5,0.5,0,0,1,.707-0.706l1.3,1.293,2.835-2.829a0.5,0.5,0,0,1,.707.706Z" transform="translate(-17 -85.063)"/>
</svg>
