<svg xmlns="http://www.w3.org/2000/svg" width="14" height="17" viewBox="0 0 14 17">
  <metadata><?xpacket begin="﻿" id="W5M0MpCehiHzreSzNTczkc9d"?>
<x:xmpmeta xmlns:x="adobe:ns:meta/" x:xmptk="Adobe XMP Core 5.6-c142 79.160924, 2017/07/13-01:06:39        ">
   <rdf:RDF xmlns:rdf="http://www.w3.org/1999/02/22-rdf-syntax-ns#">
      <rdf:Description rdf:about=""/>
   </rdf:RDF>
</x:xmpmeta>
                                                                                                    
                                                                                                    
                                                                                                    
                                                                                                    
                                                                                                    
                                                                                                    
                                                                                                    
                                                                                                    
                                                                                                    
                                                                                                    
                                                                                                    
                                                                                                    
                                                                                                    
                                                                                                    
                                                                                                    
                                                                                                    
                                                                                                    
                                                                                                    
                                                                                                    
                                                                                                    
                           
<?xpacket end="w"?></metadata>
<defs>
    <style>
      .cls-1 {
        fill: #686868;
        fill-rule: evenodd;
      }
    </style>
  </defs>
  <path id="competition_nor" class="cls-1" d="M41,600H37v2a1,1,0,0,1-2,0v-2H31a2.177,2.177,0,0,1-2-2v-7a2.15,2.15,0,0,1,2-2h4v-2a1.115,1.115,0,0,1,1-1,1.057,1.057,0,0,1,1,1v2h4a2.014,2.014,0,0,1,2,2v8C43,600.062,42.125,600,41,600Zm0-8a1,1,0,0,0-1-1H38a1,1,0,0,0-1,1v5a1,1,0,0,0,1,1h2a1,1,0,0,0,1-1v-5Z" transform="translate(-29 -586)"/>
</svg>
