<svg 
 xmlns="http://www.w3.org/2000/svg"
 xmlns:xlink="http://www.w3.org/1999/xlink"
 width="13px" height="15px">
<path fill-rule="evenodd"  fill="rgb(245, 68, 68)"
 d="M12.000,5.000 L12.000,13.000 C12.000,14.421 11.267,15.000 10.000,15.000 L3.000,15.000 C1.390,15.000 1.000,14.133 1.000,13.000 L1.000,6.000 L1.000,5.000 C-0.099,5.000 -0.099,4.000 1.000,4.000 L3.000,4.000 C3.000,2.309 4.813,1.200 6.000,1.000 C6.442,0.925 6.839,1.000 7.000,1.000 C7.594,1.000 10.000,1.730 10.000,4.000 L12.000,4.000 C13.099,4.000 13.099,5.000 12.000,5.000 ZM7.000,2.000 C6.688,2.000 6.346,2.000 6.000,2.000 C4.684,2.000 4.040,3.478 4.000,4.000 L9.000,4.000 C8.955,3.315 8.312,2.000 7.000,2.000 ZM11.000,5.000 L2.000,5.000 L2.000,13.000 C2.000,13.769 2.544,14.000 3.000,14.000 L10.000,14.000 C10.456,14.000 11.000,13.769 11.000,13.000 L11.000,5.000 ZM8.500,12.000 C8.224,12.000 8.000,11.776 8.000,11.500 L8.000,7.500 C8.000,7.224 8.224,7.000 8.500,7.000 C8.776,7.000 9.000,7.224 9.000,7.500 L9.000,11.500 C9.000,11.776 8.776,12.000 8.500,12.000 ZM6.500,12.000 C6.224,12.000 6.000,11.776 6.000,11.500 L6.000,7.500 C6.000,7.224 6.224,7.000 6.500,7.000 C6.776,7.000 7.000,7.224 7.000,7.500 L7.000,11.500 C7.000,11.776 6.776,12.000 6.500,12.000 ZM4.500,12.000 C4.224,12.000 4.000,11.776 4.000,11.500 L4.000,7.500 C4.000,7.224 4.224,7.000 4.500,7.000 C4.776,7.000 5.000,7.224 5.000,7.500 L5.000,11.500 C5.000,11.776 4.776,12.000 4.500,12.000 Z"/>
</svg>
