<svg 
 xmlns="http://www.w3.org/2000/svg"
 xmlns:xlink="http://www.w3.org/1999/xlink"
 width="15px" height="17px">
<path fill-rule="evenodd"  fill="rgb(170, 170, 170)"
 d="M14.000,5.000 L14.000,15.000 C14.000,16.421 13.267,17.000 12.000,17.000 L3.000,17.000 C1.390,17.000 1.000,16.133 1.000,15.000 L1.000,6.000 L1.000,5.000 C-0.099,5.000 -0.099,4.000 1.000,4.000 L4.000,4.000 C4.000,2.309 5.813,1.200 7.000,1.000 C7.442,0.926 7.839,1.000 8.000,1.000 C8.594,1.000 11.000,1.730 11.000,4.000 L14.000,4.000 C15.099,4.000 15.099,5.000 14.000,5.000 ZM8.000,2.000 C7.688,2.000 7.346,2.000 7.000,2.000 C5.684,2.000 5.040,3.478 5.000,4.000 L10.000,4.000 C9.955,3.315 9.312,2.000 8.000,2.000 ZM13.000,5.000 L2.000,5.000 L2.000,15.000 C2.000,15.769 2.544,16.000 3.000,16.000 L12.000,16.000 C12.456,16.000 13.000,15.769 13.000,15.000 L13.000,5.000 ZM10.500,14.000 L10.500,14.000 C10.224,14.000 10.000,13.776 10.000,13.500 L10.000,8.500 C10.000,8.224 10.224,8.000 10.500,8.000 L10.500,8.000 C10.776,8.000 11.000,8.224 11.000,8.500 L11.000,13.500 C11.000,13.776 10.776,14.000 10.500,14.000 ZM7.500,14.000 L7.500,14.000 C7.224,14.000 7.000,13.776 7.000,13.500 L7.000,8.500 C7.000,8.224 7.224,8.000 7.500,8.000 L7.500,8.000 C7.776,8.000 8.000,8.224 8.000,8.500 L8.000,13.500 C8.000,13.776 7.776,14.000 7.500,14.000 ZM4.500,14.000 L4.500,14.000 C4.224,14.000 4.000,13.776 4.000,13.500 L4.000,8.500 C4.000,8.224 4.224,8.000 4.500,8.000 L4.500,8.000 C4.776,8.000 5.000,8.224 5.000,8.500 L5.000,13.500 C5.000,13.776 4.776,14.000 4.500,14.000 Z"/>
</svg>
