<svg 
 xmlns="http://www.w3.org/2000/svg"
 xmlns:xlink="http://www.w3.org/1999/xlink"
 width="14px" height="14px">
<path fill-rule="evenodd"  fill="rgb(240, 123, 87)"
 d="M12.000,14.000 L2.000,14.000 C0.895,14.000 -0.000,13.104 -0.000,12.000 L-0.000,2.000 C-0.000,0.895 0.895,-0.000 2.000,-0.000 L12.000,-0.000 C13.104,-0.000 14.000,0.895 14.000,2.000 L14.000,12.000 C14.000,13.104 13.104,14.000 12.000,14.000 ZM11.764,4.177 C11.570,3.980 11.256,3.980 11.062,4.177 L5.564,9.752 L1.838,5.974 C1.644,5.777 1.330,5.777 1.136,5.974 C0.943,6.171 0.943,6.489 1.136,6.686 L5.213,10.819 C5.310,10.918 5.437,10.967 5.564,10.967 C5.691,10.967 5.818,10.918 5.915,10.819 L11.764,4.888 C11.957,4.692 11.957,4.373 11.764,4.177 Z"/>
</svg>
