<svg 
 xmlns="http://www.w3.org/2000/svg"
 xmlns:xlink="http://www.w3.org/1999/xlink"
 width="14px" height="14px">
<path fill-rule="evenodd"  fill="rgb(153, 153, 153)"
 d="M10.990,14.002 L1.406,14.002 C0.631,14.002 0.002,13.372 0.000,12.593 L0.000,6.290 C0.000,5.513 0.630,4.881 1.406,4.881 L3.276,4.881 C3.304,4.879 3.331,4.879 3.359,4.882 C3.407,4.886 3.964,4.909 4.479,4.460 C5.014,3.994 5.327,3.188 5.407,2.063 C5.392,1.826 5.369,0.841 5.970,0.316 C6.201,0.114 6.614,-0.096 7.267,0.055 C7.888,0.198 8.390,0.606 8.718,1.234 C8.997,1.769 9.136,2.446 9.120,3.193 C9.103,3.766 9.011,4.333 8.846,4.881 L12.640,4.881 C12.671,4.881 12.703,4.884 12.735,4.890 C12.766,4.896 13.039,4.957 13.321,5.138 C13.730,5.400 13.972,5.798 14.002,6.259 C14.013,6.425 14.039,6.814 13.165,10.003 C12.887,11.014 12.601,12.023 12.305,13.028 C12.248,13.206 12.158,13.370 12.039,13.513 C11.776,13.833 11.413,14.002 10.990,14.002 L10.990,14.002 ZM3.790,13.053 L10.990,13.053 C11.105,13.059 11.218,13.012 11.295,12.926 C11.339,12.876 11.374,12.818 11.397,12.756 C11.421,12.676 11.839,11.259 12.247,9.767 C13.016,6.960 13.062,6.420 13.057,6.321 C13.050,6.225 13.020,6.081 12.829,5.950 C12.751,5.899 12.667,5.859 12.578,5.831 L8.179,5.831 C8.022,5.831 7.875,5.753 7.787,5.622 C7.699,5.491 7.682,5.326 7.740,5.179 C8.266,3.862 8.319,2.519 7.879,1.675 C7.681,1.295 7.403,1.062 7.055,0.982 C6.735,0.908 6.628,1.002 6.593,1.033 C6.366,1.230 6.334,1.794 6.354,2.021 C6.356,2.045 6.356,2.070 6.355,2.094 C6.259,3.514 5.830,4.558 5.079,5.198 C4.711,5.511 4.266,5.719 3.790,5.799 L3.790,13.053 ZM1.406,5.831 C1.153,5.831 0.948,6.036 0.947,6.290 L0.947,12.593 C0.948,12.847 1.153,13.052 1.406,13.052 L2.843,13.052 L2.843,5.831 L1.406,5.831 Z"/>
</svg>
