<svg 
 xmlns="http://www.w3.org/2000/svg"
 xmlns:xlink="http://www.w3.org/1999/xlink"
 width="16px" height="16px">
<path fill-rule="evenodd"  fill="rgb(214, 80, 39)"
 d="M9.949,-0.000 L15.137,-0.000 C15.656,-0.000 16.000,0.346 16.000,0.863 L16.000,6.050 C16.000,6.888 15.000,6.898 15.000,6.000 L15.000,2.000 L11.000,6.000 C10.654,6.346 9.689,7.442 9.124,6.877 C8.496,6.249 9.654,5.346 10.000,5.000 L14.000,1.000 L10.000,1.000 C9.041,1.000 9.034,-0.000 9.949,-0.000 ZM1.000,10.000 L1.000,14.000 L5.000,10.000 C5.346,9.654 6.280,8.529 6.876,9.125 C7.566,9.815 6.346,10.654 6.000,11.000 L2.000,15.000 L6.000,15.000 C6.994,15.000 7.041,16.000 6.049,16.000 L0.863,16.000 C0.344,16.000 -0.000,15.653 -0.000,15.136 L-0.000,9.952 C-0.000,9.089 1.000,9.068 1.000,10.000 Z"/>
</svg>
