<svg 
 xmlns="http://www.w3.org/2000/svg"
 xmlns:xlink="http://www.w3.org/1999/xlink"
 width="18px" height="17px">
<path fill-rule="evenodd"  fill="rgb(124, 124, 124)"
 d="M12.941,-0.000 C11.391,-0.000 9.954,0.792 9.000,2.096 C8.056,0.792 6.609,-0.000 5.059,-0.000 C2.268,-0.000 -0.000,2.524 -0.000,5.621 C-0.000,7.467 0.811,8.771 1.468,9.814 C3.366,12.849 8.148,16.614 8.353,16.770 C8.548,16.927 8.774,17.000 9.000,17.000 C9.226,17.000 9.451,16.927 9.646,16.770 C9.852,16.614 14.624,12.838 16.533,9.814 C17.189,8.771 18.000,7.467 18.000,5.621 C18.000,2.524 15.732,-0.000 12.941,-0.000 L12.941,-0.000 ZM15.229,9.783 C13.474,12.286 9.759,15.143 9.575,15.279 C9.400,15.415 9.195,15.488 9.000,15.488 C8.795,15.488 8.600,15.425 8.425,15.279 C8.241,15.143 4.597,12.254 2.771,9.678 C2.186,8.740 1.252,7.572 1.252,5.924 C1.252,3.150 2.771,1.199 5.264,1.199 C6.650,1.199 8.158,2.545 9.000,3.713 C9.852,2.545 11.350,1.199 12.735,1.199 C15.239,1.199 16.861,3.150 16.861,5.924 C16.861,7.572 15.824,8.854 15.229,9.783 L15.229,9.783 Z"/>
</svg>
