<svg 
 xmlns="http://www.w3.org/2000/svg"
 xmlns:xlink="http://www.w3.org/1999/xlink"
 width="18px" height="18px">
<path fill-rule="evenodd"  fill="rgb(240, 123, 87)"
 d="M17.998,12.361 C17.997,12.367 17.998,12.370 17.997,12.378 C17.996,12.386 17.995,12.393 17.994,12.401 C17.994,12.405 17.993,12.409 17.993,12.413 C17.992,12.421 17.990,12.429 17.989,12.438 C17.988,12.441 17.987,12.445 17.987,12.448 C17.985,12.456 17.983,12.465 17.981,12.473 C17.981,12.476 17.979,12.480 17.979,12.483 C17.977,12.491 17.975,12.499 17.973,12.506 L17.969,12.518 C17.967,12.525 17.964,12.535 17.962,12.540 C17.961,12.544 17.960,12.546 17.958,12.553 C17.956,12.559 17.953,12.566 17.951,12.571 C17.949,12.576 17.947,12.581 17.945,12.587 C17.942,12.592 17.940,12.597 17.937,12.603 C17.935,12.609 17.932,12.616 17.930,12.620 C17.927,12.625 17.926,12.628 17.923,12.634 C17.919,12.641 17.916,12.647 17.913,12.653 L17.906,12.665 C17.903,12.671 17.899,12.677 17.895,12.684 L17.888,12.695 C17.884,12.701 17.880,12.707 17.876,12.714 L17.868,12.724 C17.864,12.731 17.859,12.737 17.855,12.743 L17.845,12.756 C17.841,12.761 17.837,12.766 17.833,12.771 C17.828,12.777 17.824,12.782 17.819,12.787 L17.809,12.799 C17.800,12.808 17.792,12.817 17.783,12.825 L14.814,15.764 C14.217,16.355 13.403,15.591 14.000,15.000 L16.000,13.000 L9.093,13.040 C8.266,13.040 8.173,12.000 9.000,12.000 L16.000,12.000 L14.000,10.000 C13.402,9.409 14.217,8.256 14.814,8.847 L17.783,11.785 C17.792,11.794 17.801,11.803 17.809,11.812 L17.819,11.826 C17.824,11.831 17.828,11.836 17.833,11.841 C17.837,11.847 17.841,11.852 17.845,11.857 L17.855,11.870 C17.859,11.876 17.864,11.882 17.868,11.888 L17.876,11.899 C17.880,11.905 17.884,11.911 17.888,11.918 L17.895,11.929 C17.899,11.935 17.903,11.941 17.906,11.948 L17.913,11.960 C17.916,11.966 17.920,11.974 17.923,11.979 C17.925,11.983 17.927,11.987 17.930,11.993 C17.932,11.998 17.935,12.004 17.937,12.010 C17.940,12.016 17.942,12.021 17.945,12.026 C17.947,12.031 17.948,12.036 17.951,12.041 C17.953,12.048 17.956,12.056 17.958,12.060 C17.959,12.065 17.960,12.066 17.962,12.073 C17.965,12.081 17.967,12.088 17.969,12.095 C17.971,12.098 17.972,12.102 17.973,12.106 C17.975,12.114 17.977,12.122 17.979,12.130 C17.980,12.133 17.981,12.137 17.981,12.141 C17.983,12.148 17.985,12.156 17.987,12.164 C17.987,12.168 17.989,12.172 17.989,12.175 C17.990,12.183 17.992,12.191 17.993,12.200 C17.993,12.204 17.994,12.208 17.994,12.212 C17.995,12.220 17.996,12.230 17.997,12.235 C17.998,12.240 17.997,12.246 17.998,12.251 C18.000,12.258 18.000,12.264 18.000,12.270 L18.000,12.343 C18.000,12.349 18.000,12.356 17.998,12.361 ZM15.000,7.000 L15.000,6.000 L10.763,5.877 C10.353,5.877 10.021,5.548 10.021,5.142 L10.000,1.000 L1.000,1.000 L1.000,17.000 L11.000,17.000 C11.852,17.000 11.801,18.000 10.949,18.000 L0.742,18.000 C0.545,18.000 0.356,17.922 0.217,17.785 C0.078,17.647 -0.000,17.460 -0.000,17.265 L-0.000,0.733 C0.001,0.328 0.332,0.001 0.742,0.000 L10.763,0.000 C10.776,0.000 10.790,-0.000 10.801,0.000 C10.811,0.001 10.822,0.002 10.832,0.002 L10.837,0.002 C10.958,0.014 11.074,0.055 11.175,0.122 C11.184,0.128 11.193,0.134 11.202,0.141 L11.205,0.143 C11.213,0.149 11.221,0.156 11.229,0.162 L11.234,0.166 C11.242,0.172 11.249,0.178 11.256,0.185 L11.262,0.189 C11.271,0.197 11.280,0.206 11.288,0.214 L15.744,4.621 L15.745,4.623 C15.753,4.630 15.761,4.639 15.769,4.647 L15.775,4.654 C15.780,4.661 15.787,4.668 15.792,4.674 L15.797,4.681 C15.803,4.688 15.809,4.696 15.815,4.703 L15.818,4.707 C15.825,4.715 15.831,4.724 15.837,4.733 L15.837,4.734 C15.904,4.834 15.945,4.948 15.957,5.068 L15.957,5.073 C15.958,5.083 15.960,5.094 15.960,5.104 L15.960,6.979 C15.960,7.845 15.000,7.866 15.000,7.000 ZM11.000,2.000 L11.000,5.000 L14.000,5.000 L11.000,2.000 Z"/>
</svg>
