<svg 
 xmlns="http://www.w3.org/2000/svg"
 xmlns:xlink="http://www.w3.org/1999/xlink"
 width="13px" height="11px">
<path fill-rule="evenodd"  fill="rgb(153, 153, 153)"
 d="M11.104,0.970 L9.141,0.970 C8.879,0.970 8.667,0.765 8.667,0.514 C8.667,0.262 8.879,0.057 9.141,0.057 L12.281,0.057 C12.416,-0.015 12.580,-0.020 12.719,0.046 C12.858,0.111 12.955,0.237 12.980,0.384 C13.004,0.461 13.006,0.543 12.986,0.622 L12.986,3.712 C12.986,3.964 12.774,4.168 12.513,4.168 C12.251,4.168 12.039,3.964 12.039,3.712 L12.039,1.360 L6.594,6.596 C6.409,6.774 6.109,6.775 5.924,6.597 C5.739,6.419 5.739,6.130 5.924,5.952 L11.104,0.970 ZM12.053,6.136 C12.034,6.087 12.025,6.036 12.025,5.984 C12.025,5.733 12.244,5.529 12.513,5.529 C12.781,5.529 13.000,5.733 13.000,5.984 C13.000,6.036 12.991,6.088 12.972,6.137 L13.000,6.137 L13.000,9.749 C13.000,10.440 12.418,11.000 11.700,11.000 L1.300,11.000 C0.582,11.000 0.000,10.440 0.000,9.749 L0.000,1.308 C0.000,0.617 0.582,0.057 1.300,0.057 L6.500,0.057 L6.500,0.061 C6.636,0.044 6.773,0.084 6.877,0.170 C6.980,0.257 7.040,0.382 7.042,0.514 C7.040,0.646 6.980,0.771 6.877,0.857 C6.773,0.944 6.636,0.984 6.500,0.967 L6.500,0.970 L1.625,0.970 C1.453,0.970 1.287,1.036 1.165,1.153 C1.043,1.270 0.975,1.429 0.975,1.595 L0.975,9.463 C0.975,9.628 1.043,9.787 1.165,9.905 C1.287,10.022 1.453,10.088 1.625,10.088 L11.375,10.088 C11.547,10.088 11.713,10.022 11.835,9.905 C11.957,9.787 12.025,9.628 12.025,9.463 L12.025,6.137 L12.053,6.137 L12.053,6.136 Z"/>
</svg>
