<svg 
 xmlns="http://www.w3.org/2000/svg"
 xmlns:xlink="http://www.w3.org/1999/xlink"
 width="38px" height="38px">
<path fill-rule="evenodd"  fill="rgb(75, 197, 195)"
 d="M19.000,38.000 C8.507,38.000 -0.000,29.493 -0.000,19.000 C-0.000,8.507 8.507,-0.000 19.000,-0.000 C29.493,-0.000 38.000,8.507 38.000,19.000 C38.000,29.493 29.493,38.000 19.000,38.000 ZM29.125,14.767 C28.576,13.448 27.780,12.248 26.780,11.233 C25.771,10.228 24.580,9.427 23.270,8.876 C21.912,8.292 20.488,7.999 18.999,7.999 C17.530,7.995 16.077,8.293 14.728,8.876 C13.417,9.426 12.225,10.226 11.217,11.233 C10.217,12.248 9.422,13.448 8.874,14.767 C8.294,16.136 8.003,17.569 8.003,19.068 C8.003,20.600 8.296,22.049 8.887,23.417 C9.462,24.763 10.296,25.982 11.342,27.001 L26.657,27.001 C27.704,25.982 28.538,24.763 29.113,23.417 C29.701,22.049 29.997,20.600 29.997,19.068 C30.001,17.590 29.704,16.126 29.125,14.767 ZM12.002,25.419 C10.383,23.621 9.571,21.505 9.571,19.067 C9.560,17.396 9.997,15.753 10.835,14.310 C11.659,12.872 12.845,11.679 14.273,10.850 C15.706,10.008 17.338,9.569 18.997,9.580 C20.658,9.569 22.290,10.007 23.724,10.850 C25.153,11.678 26.338,12.872 27.161,14.310 C28.002,15.770 28.425,17.354 28.425,19.067 C28.425,21.505 27.614,23.621 25.993,25.419 L12.002,25.419 ZM10.579,17.140 L10.383,18.251 L12.372,18.623 L12.567,17.511 L10.579,17.140 ZM13.843,12.052 L12.984,12.766 L14.284,14.325 L14.285,14.323 L15.144,13.607 L13.843,12.052 ZM19.561,10.371 L18.433,10.371 L18.433,12.398 L19.561,12.398 L19.561,10.371 ZM18.949,19.118 L18.949,19.117 C18.377,19.115 17.846,19.415 17.550,19.907 C17.305,20.303 17.236,20.726 17.342,21.179 C17.440,21.621 17.709,22.004 18.090,22.244 C18.483,22.499 18.909,22.571 19.366,22.466 C19.825,22.359 20.177,22.107 20.421,21.712 C20.764,21.135 20.774,20.552 20.447,19.958 L22.336,15.313 L18.949,19.118 ZM24.152,12.053 L22.852,13.609 L23.710,14.326 L23.710,14.323 L25.011,12.767 L24.152,12.053 ZM27.416,17.142 L25.428,17.511 L25.626,18.623 L27.613,18.255 L27.416,17.142 Z"/>
</svg>
