<svg 
 xmlns="http://www.w3.org/2000/svg"
 xmlns:xlink="http://www.w3.org/1999/xlink"
 width="21px" height="19px">
<path fill-rule="evenodd"  fill="rgb(172, 172, 172)"
 d="M20.000,19.000 L1.000,19.000 C0.359,19.000 -0.000,18.644 -0.000,18.000 L-0.000,15.000 C-0.000,14.358 0.357,14.000 1.000,14.000 L20.000,14.000 C20.641,14.000 21.000,14.356 21.000,15.000 L21.000,18.000 C21.000,18.641 20.643,19.000 20.000,19.000 ZM19.000,16.000 L11.000,16.000 L11.000,17.000 L19.000,17.000 L19.000,16.000 ZM20.000,12.000 L1.000,12.000 C0.359,12.000 -0.000,11.644 -0.000,11.000 L-0.000,8.000 C-0.000,7.358 0.357,7.000 1.000,7.000 L20.000,7.000 C20.641,7.000 21.000,7.356 21.000,8.000 L21.000,11.000 C21.000,11.641 20.643,12.000 20.000,12.000 ZM19.000,9.000 L8.000,9.000 L8.000,10.000 L19.000,10.000 L19.000,9.000 ZM20.000,5.000 L1.000,5.000 C0.359,5.000 -0.000,4.643 -0.000,4.000 L-0.000,1.000 C-0.000,0.358 0.357,-0.000 1.000,-0.000 L20.000,-0.000 C20.641,-0.000 21.000,0.356 21.000,1.000 L21.000,4.000 C21.000,4.641 20.643,5.000 20.000,5.000 ZM19.000,2.000 L14.000,2.000 L14.000,3.000 L19.000,3.000 L19.000,2.000 Z"/>
</svg>
