<svg xmlns="http://www.w3.org/2000/svg" width="16" height="14.063" viewBox="0 0 16 14.063">
  <metadata><?xpacket begin="﻿" id="W5M0MpCehiHzreSzNTczkc9d"?>
<x:xmpmeta xmlns:x="adobe:ns:meta/" x:xmptk="Adobe XMP Core 5.6-c142 79.160924, 2017/07/13-01:06:39        ">
   <rdf:RDF xmlns:rdf="http://www.w3.org/1999/02/22-rdf-syntax-ns#">
      <rdf:Description rdf:about=""/>
   </rdf:RDF>
</x:xmpmeta>
                                                                                                    
                                                                                                    
                                                                                                    
                                                                                                    
                                                                                                    
                                                                                                    
                                                                                                    
                                                                                                    
                                                                                                    
                                                                                                    
                                                                                                    
                                                                                                    
                                                                                                    
                                                                                                    
                                                                                                    
                                                                                                    
                                                                                                    
                                                                                                    
                                                                                                    
                                                                                                    
                           
<?xpacket end="w"?></metadata>
<defs>
    <style>
      .cls-1 {
        fill: #f07b57;
        fill-rule: evenodd;
      }
    </style>
  </defs>
  <path id="message_sel" class="cls-1" d="M39,243c-0.489.113-9.815,0.012-10,0a7.732,7.732,0,0,1-3-6,8,8,0,0,1,16,0A7.835,7.835,0,0,1,39,243Zm-11-6a1,1,0,1,0,1,1A1,1,0,0,0,28,237Zm2-4a1,1,0,1,0,1,1A1,1,0,0,0,30,233Zm2,6.5a1.5,1.5,0,0,0,1.5,1.5,1.481,1.481,0,0,0,1.416-1.084L35,240l2-4-4,2,0.084,0.084A1.48,1.48,0,0,0,32,239.5Zm2-8.5a1,1,0,1,0,1,1A1,1,0,0,0,34,231Zm4,2a1,1,0,1,0,1,1A1,1,0,0,0,38,233Zm2,4a1,1,0,1,0,1,1A1,1,0,0,0,40,237Z" transform="translate(-26 -229)"/>
</svg>
