<svg xmlns="http://www.w3.org/2000/svg" width="17.75" height="17.031" viewBox="0 0 17.75 17.031">
  <metadata><?xpacket begin="﻿" id="W5M0MpCehiHzreSzNTczkc9d"?>
<x:xmpmeta xmlns:x="adobe:ns:meta/" x:xmptk="Adobe XMP Core 5.6-c142 79.160924, 2017/07/13-01:06:39        ">
   <rdf:RDF xmlns:rdf="http://www.w3.org/1999/02/22-rdf-syntax-ns#">
      <rdf:Description rdf:about=""/>
   </rdf:RDF>
</x:xmpmeta>
                                                                                                    
                                                                                                    
                                                                                                    
                                                                                                    
                                                                                                    
                                                                                                    
                                                                                                    
                                                                                                    
                                                                                                    
                                                                                                    
                                                                                                    
                                                                                                    
                                                                                                    
                                                                                                    
                                                                                                    
                                                                                                    
                                                                                                    
                                                                                                    
                                                                                                    
                                                                                                    
                           
<?xpacket end="w"?></metadata>
<defs>
    <style>
      .cls-1 {
        fill: #acacac;
        fill-rule: evenodd;
      }
    </style>
  </defs>
  <path id="modification_nor" class="cls-1" d="M497.622,181.133l-1.459,1.471h0L488.834,190a0.476,0.476,0,0,1-.216.127l-3.376.936a0.488,0.488,0,0,1-.6-0.607l0.9-3.051a0.49,0.49,0,0,1,.117-0.2l8.82-9.109a0.488,0.488,0,0,1,.689-0.012l2.449,2.359A0.488,0.488,0,0,1,497.622,181.133Zm-11.8,8.753,1.437-.4-1.021-1.02Zm2.476-.74,6.825-6.885-1.693-1.692-6.744,6.965Zm6.535-10.026-0.724.748,1.7,1.7,0.764-.771ZM491,179h-8a2.549,2.549,0,0,0-2,2v11a2.549,2.549,0,0,0,2,2h11a2.549,2.549,0,0,0,2-2v-7c0-.556,1-0.556,1,0v7a3.509,3.509,0,0,1-3,3H483a2.94,2.94,0,0,1-3-3V181a3.3,3.3,0,0,1,3-3h8C491.877,178,491.877,179,491,179Z" transform="translate(-480 -177.969)"/>
</svg>
