<svg 
 xmlns="http://www.w3.org/2000/svg"
 xmlns:xlink="http://www.w3.org/1999/xlink"
 width="18px" height="18px">
<path fill-rule="evenodd"  fill="rgb(245, 68, 68)"
 d="M9.000,-0.000 C4.027,-0.000 -0.000,4.027 -0.000,9.000 C-0.000,13.972 4.027,18.000 9.000,18.000 C13.972,18.000 18.000,13.972 18.000,9.000 C18.000,4.027 13.972,-0.000 9.000,-0.000 L9.000,-0.000 ZM9.000,3.161 C9.675,3.161 10.226,3.712 10.226,4.387 C10.226,4.387 9.607,10.080 9.607,10.114 C9.562,10.699 9.304,11.137 9.000,11.137 C8.696,11.137 8.437,10.699 8.392,10.114 C8.392,10.069 7.774,4.387 7.774,4.387 C7.774,3.712 8.325,3.161 9.000,3.161 L9.000,3.161 ZM9.000,14.839 C8.314,14.839 7.762,14.287 7.762,13.601 C7.762,12.915 8.314,12.364 9.000,12.364 C9.686,12.364 10.238,12.915 10.238,13.601 C10.238,14.287 9.686,14.839 9.000,14.839 L9.000,14.839 Z"/>
</svg>
