<svg 
 xmlns="http://www.w3.org/2000/svg"
 xmlns:xlink="http://www.w3.org/1999/xlink"
 width="13px" height="12px">
<path fill-rule="evenodd"  fill="rgb(214, 80, 39)"
 d="M12.243,11.430 C12.054,11.619 11.748,11.619 11.559,11.430 L6.577,6.448 L1.350,11.674 C1.155,11.870 0.839,11.870 0.643,11.674 C0.448,11.479 0.448,11.163 0.643,10.967 L5.869,5.741 L1.387,1.259 C1.199,1.070 1.199,0.764 1.387,0.575 C1.576,0.386 1.883,0.386 2.072,0.575 L6.554,5.057 L11.250,0.361 C11.445,0.166 11.762,0.166 11.957,0.361 C12.152,0.556 12.152,0.873 11.957,1.068 L7.261,5.764 L12.243,10.746 C12.432,10.935 12.432,11.241 12.243,11.430 Z"/>
</svg>
