<svg id="off_big" xmlns="http://www.w3.org/2000/svg" width="85" height="34" viewBox="0 0 85 34">
  <metadata><?xpacket begin="﻿" id="W5M0MpCehiHzreSzNTczkc9d"?>
<x:xmpmeta xmlns:x="adobe:ns:meta/" x:xmptk="Adobe XMP Core 5.6-c142 79.160924, 2017/07/13-01:06:39        ">
   <rdf:RDF xmlns:rdf="http://www.w3.org/1999/02/22-rdf-syntax-ns#">
      <rdf:Description rdf:about=""/>
   </rdf:RDF>
</x:xmpmeta>
                                                                                                    
                                                                                                    
                                                                                                    
                                                                                                    
                                                                                                    
                                                                                                    
                                                                                                    
                                                                                                    
                                                                                                    
                                                                                                    
                                                                                                    
                                                                                                    
                                                                                                    
                                                                                                    
                                                                                                    
                                                                                                    
                                                                                                    
                                                                                                    
                                                                                                    
                                                                                                    
                           
<?xpacket end="w"?></metadata>
<defs>
    <style>
      .cls-1 {
        fill: #f0eeee;
      }

      .cls-2 {
        fill: #fff;
      }

      .cls-3 {
        fill: #999;
        fill-rule: evenodd;
      }
    </style>
  </defs>
  <rect id="圆角矩形_24" data-name="圆角矩形 24" class="cls-1" width="85" height="34" rx="17" ry="17"/>
  <circle id="off_big-2" data-name="off_big" class="cls-2" cx="17" cy="17" r="15"/>
  <path id="关" class="cls-3" d="M1720.67,335.3a10.081,10.081,0,0,0-1.45-2.353l-0.76.406a10.293,10.293,0,0,1,1.39,2.395Zm7.6,4.945v-0.925h-5.52c0.03-.308.04-0.6,0.04-0.9v-1.709h4.72V335.8h-2.86a27.275,27.275,0,0,0,1.56-2.591l-1-.35a18.781,18.781,0,0,1-1.55,2.941h-6.59v0.911h4.68v1.695c0,0.294-.01.588-0.04,0.91h-5.46v0.925h5.28c-0.44,1.541-1.74,3.193-5.53,4.5a3.835,3.835,0,0,1,.65.813c3.67-1.317,5.17-2.984,5.76-4.623a9.013,9.013,0,0,0,5.52,4.539,3.485,3.485,0,0,1,.66-0.869,8.259,8.259,0,0,1-5.55-4.356h5.23Z" transform="translate(-1669 -322)"/>
</svg>
