<svg 
 xmlns="http://www.w3.org/2000/svg"
 xmlns:xlink="http://www.w3.org/1999/xlink"
 width="15px" height="16px">
<path fill-rule="evenodd"  fill="rgb(172, 172, 172)"
 d="M14.857,14.827 C14.668,15.016 14.362,15.016 14.173,14.827 L7.776,8.430 L1.136,15.071 C0.941,15.266 0.624,15.266 0.429,15.071 C0.233,14.876 0.233,14.559 0.429,14.364 L7.069,7.723 L1.173,1.827 C0.984,1.638 0.984,1.332 1.173,1.143 C1.362,0.954 1.668,0.954 1.857,1.143 L7.753,7.039 L13.864,0.929 C14.059,0.734 14.376,0.734 14.571,0.929 C14.766,1.124 14.766,1.441 14.571,1.636 L8.461,7.746 L14.857,14.143 C15.046,14.332 15.046,14.638 14.857,14.827 Z"/>
</svg>
