<svg 
 xmlns="http://www.w3.org/2000/svg"
 xmlns:xlink="http://www.w3.org/1999/xlink"
 width="14px" height="12px">
<path fill-rule="evenodd"  fill="rgb(153, 153, 153)"
 d="M12.187,9.816 L9.147,9.816 C8.429,10.573 7.416,11.795 7.405,11.807 C7.291,11.934 7.148,11.999 7.000,11.999 C6.852,11.999 6.709,11.934 6.606,11.819 C6.606,11.819 5.297,10.378 4.795,9.816 L1.812,9.816 C0.830,9.816 -0.001,8.880 -0.001,7.770 L-0.001,1.952 C-0.001,0.876 0.798,0.001 1.781,0.001 L12.219,0.001 C13.202,0.001 14.001,0.876 14.001,1.952 L14.001,7.769 C14.001,8.879 13.170,9.816 12.187,9.816 ZM13.251,1.952 C13.251,1.316 12.788,0.801 12.220,0.801 L1.781,0.801 C1.212,0.801 0.750,1.317 0.750,1.952 L0.750,7.769 C0.750,8.433 1.247,9.016 1.812,9.016 L5.118,9.016 L5.229,9.142 C5.530,9.484 6.596,10.659 6.994,11.096 C7.320,10.708 8.143,9.738 8.733,9.128 L8.843,9.016 L12.188,9.016 C12.754,9.016 13.251,8.433 13.251,7.769 L13.251,1.952 ZM9.813,5.831 C9.424,5.831 9.109,5.484 9.109,5.055 C9.109,4.627 9.424,4.279 9.813,4.279 C10.201,4.279 10.516,4.627 10.516,5.055 C10.516,5.484 10.201,5.831 9.813,5.831 ZM7.000,5.831 C6.612,5.831 6.297,5.484 6.297,5.055 C6.297,4.627 6.611,4.279 7.000,4.279 C7.389,4.279 7.703,4.627 7.703,5.055 C7.703,5.484 7.388,5.831 7.000,5.831 ZM4.187,5.831 C3.799,5.831 3.484,5.484 3.484,5.055 C3.484,4.627 3.799,4.279 4.187,4.279 C4.576,4.279 4.890,4.627 4.890,5.055 C4.890,5.484 4.575,5.831 4.187,5.831 Z"/>
</svg>
