<svg 
 xmlns="http://www.w3.org/2000/svg"
 xmlns:xlink="http://www.w3.org/1999/xlink"
 width="38px" height="38px">
<path fill-rule="evenodd"  fill="rgb(87, 168, 249)"
 d="M19.000,38.000 C8.507,38.000 -0.000,29.493 -0.000,19.000 C-0.000,8.507 8.507,-0.000 19.000,-0.000 C29.493,-0.000 38.000,8.507 38.000,19.000 C38.000,29.493 29.493,38.000 19.000,38.000 ZM19.000,7.997 C12.870,7.997 7.997,12.870 7.997,19.000 C7.997,25.130 12.870,30.003 19.000,30.003 C25.130,30.003 30.003,25.130 30.003,19.000 C30.003,12.870 25.130,7.997 19.000,7.997 ZM23.087,19.629 L28.589,19.629 C28.589,21.358 27.960,22.930 27.017,24.344 C25.602,23.873 24.187,23.559 22.773,23.401 C22.930,22.144 23.087,21.043 23.087,19.629 ZM22.773,14.599 C24.344,14.441 25.759,14.127 27.017,13.656 C27.960,15.070 28.431,16.642 28.589,18.371 L23.087,18.371 C23.087,16.957 22.930,15.856 22.773,14.599 ZM21.358,9.569 C23.244,10.040 24.816,11.140 26.074,12.398 C24.973,12.712 23.716,13.027 22.458,13.184 C22.144,11.926 21.829,10.669 21.358,9.569 ZM16.956,13.341 C17.271,11.769 17.742,10.512 18.371,9.254 L19.629,9.254 C20.257,10.512 20.729,11.926 21.043,13.341 C20.415,13.498 19.629,13.498 19.000,13.498 C18.371,13.498 17.585,13.341 16.956,13.341 ZM21.358,14.756 C21.515,15.856 21.672,17.114 21.829,18.371 L16.328,18.371 C16.328,17.114 16.485,15.856 16.642,14.756 C17.428,14.913 18.214,14.913 19.000,14.913 C19.786,14.913 20.572,14.756 21.358,14.756 ZM11.926,12.555 C13.184,11.140 14.756,10.197 16.642,9.726 C16.170,10.826 15.856,11.926 15.542,13.341 C14.284,13.184 13.027,12.870 11.926,12.555 ZM14.913,18.371 L9.411,18.371 C9.411,16.642 10.040,15.070 10.983,13.656 C12.398,14.127 13.813,14.441 15.227,14.599 C15.070,15.856 14.913,16.957 14.913,18.371 ZM15.227,23.401 C13.656,23.559 12.241,23.873 10.983,24.344 C10.040,22.930 9.568,21.358 9.411,19.629 L14.913,19.629 C14.913,21.043 15.070,22.144 15.227,23.401 ZM16.642,28.431 C14.756,27.960 13.184,26.860 11.926,25.602 C13.027,25.288 14.284,24.973 15.542,24.816 C15.856,26.074 16.170,27.331 16.642,28.431 ZM21.043,24.502 C20.729,26.074 20.257,27.331 19.629,28.589 L18.371,28.589 C17.742,27.331 17.271,25.916 16.956,24.502 C17.585,24.502 18.371,24.502 19.000,24.344 C19.629,24.344 20.415,24.502 21.043,24.502 ZM16.642,23.244 C16.485,22.144 16.328,20.886 16.170,19.629 L21.672,19.629 C21.672,20.886 21.515,22.144 21.358,23.244 C20.572,23.087 19.786,23.087 19.000,23.087 C18.214,23.087 17.428,23.244 16.642,23.244 ZM26.074,25.445 C24.816,26.860 23.244,27.803 21.358,28.274 C21.829,27.174 22.144,26.074 22.458,24.659 C23.716,24.816 24.973,25.130 26.074,25.445 Z"/>
</svg>
