<svg 
 xmlns="http://www.w3.org/2000/svg"
 xmlns:xlink="http://www.w3.org/1999/xlink"
 width="18px" height="14px">
<path fill-rule="evenodd"  fill="rgb(255, 255, 255)"
 d="M17.729,6.037 L16.000,6.000 C15.492,2.589 12.877,-0.000 9.042,-0.000 C7.575,-0.000 6.213,0.380 5.053,1.047 C4.367,2.304 5.570,2.291 6.000,2.000 C6.930,1.468 7.830,1.000 9.000,1.000 C12.001,1.000 14.511,3.366 15.000,6.000 L13.721,6.037 C13.568,6.037 13.433,6.155 13.433,6.299 C13.433,6.350 13.453,6.400 13.481,6.442 L14.478,8.030 L15.476,9.634 C15.524,9.710 15.619,9.761 15.715,9.761 C15.821,9.761 15.907,9.710 15.955,9.634 L16.962,8.030 L17.949,6.442 C17.978,6.400 17.997,6.350 17.997,6.299 C18.017,6.155 17.892,6.037 17.729,6.037 M13.000,12.000 C12.799,12.000 13.134,11.882 13.000,12.000 C11.984,12.701 10.361,13.000 9.000,13.000 C5.644,13.000 3.000,10.091 3.000,7.000 L3.000,7.000 L4.295,6.865 C4.449,6.865 4.583,6.746 4.583,6.603 C4.583,6.552 4.564,6.502 4.535,6.459 L3.538,4.863 L2.531,3.259 C2.483,3.183 2.397,3.132 2.291,3.132 C2.186,3.132 2.100,3.183 2.052,3.259 L1.045,4.863 L0.048,6.451 C0.019,6.493 -0.000,6.535 -0.000,6.594 C-0.000,6.738 0.124,6.856 0.288,6.856 L2.000,7.000 L2.000,7.000 C2.000,10.867 4.861,14.000 9.052,14.000 C10.777,14.000 12.369,13.468 13.644,12.573 C13.663,12.556 13.683,12.547 13.702,12.531 C13.711,12.531 13.711,12.522 13.721,12.522 C13.874,12.395 14.086,12.181 13.980,11.999 C13.564,11.320 13.422,12.000 13.000,12.000 "/>
</svg>
