<svg xmlns="http://www.w3.org/2000/svg" width="17" height="17" viewBox="0 0 17 17">
  <metadata><?xpacket begin="﻿" id="W5M0MpCehiHzreSzNTczkc9d"?>
<x:xmpmeta xmlns:x="adobe:ns:meta/" x:xmptk="Adobe XMP Core 5.6-c142 79.160924, 2017/07/13-01:06:39        ">
   <rdf:RDF xmlns:rdf="http://www.w3.org/1999/02/22-rdf-syntax-ns#">
      <rdf:Description rdf:about=""/>
   </rdf:RDF>
</x:xmpmeta>
                                                                                                    
                                                                                                    
                                                                                                    
                                                                                                    
                                                                                                    
                                                                                                    
                                                                                                    
                                                                                                    
                                                                                                    
                                                                                                    
                                                                                                    
                                                                                                    
                                                                                                    
                                                                                                    
                                                                                                    
                                                                                                    
                                                                                                    
                                                                                                    
                                                                                                    
                                                                                                    
                           
<?xpacket end="w"?></metadata>
<defs>
    <style>
      .cls-1 {
        fill: #f07b57;
        fill-rule: evenodd;
      }
    </style>
  </defs>
  <path id="renew_hig" class="cls-1" d="M570.625,183.067a0.682,0.682,0,0,1,.9,0l2.137,2.152,2.025-2.152a0.543,0.543,0,0,1,.788,0,0.55,0.55,0,0,1,0,.793l-2.138,2.152L576,186a0.5,0.5,0,0,1,0,1h-2v2h2a0.5,0.5,0,0,1,0,1h-2v2a0.5,0.5,0,0,1-1,0v-2h-2a0.5,0.5,0,0,1,0-1h2v-2h-2a0.5,0.5,0,1,1,0-1l1.65,0.012-2.025-2.152A0.55,0.55,0,0,1,570.625,183.067ZM579,195H568a2.94,2.94,0,0,1-3-3V181a3.3,3.3,0,0,1,3-3h8c0.877,0,.877,1,0,1h-8a2.549,2.549,0,0,0-2,2v11a2.549,2.549,0,0,0,2,2h11a2.549,2.549,0,0,0,2-2v-7c0-.556,1-0.556,1,0v7A3.509,3.509,0,0,1,579,195Zm2-13h-1v1a0.5,0.5,0,0,1-1,0v-1h-1a0.5,0.5,0,0,1,0-1h1v-1a0.5,0.5,0,1,1,1,0v1h1A0.5,0.5,0,0,1,581,182Z" transform="translate(-565 -178)"/>
</svg>
