<svg 
 xmlns="http://www.w3.org/2000/svg"
 xmlns:xlink="http://www.w3.org/1999/xlink"
 width="15px" height="17px">
<path fill-rule="evenodd"  fill="rgb(240, 123, 87)"
 d="M7.500,15.564 C3.375,15.564 -0.000,12.062 -0.000,7.782 C-0.000,3.502 3.375,-0.000 7.500,-0.000 C11.625,-0.000 15.000,3.502 15.000,7.782 C15.000,12.062 11.625,15.564 7.500,15.564 L7.500,15.564 ZM7.500,14.267 C10.937,14.267 13.750,11.349 13.750,7.782 C13.750,4.215 10.937,1.297 7.500,1.297 C4.062,1.297 1.250,4.215 1.250,7.782 C1.250,11.349 4.062,14.267 7.500,14.267 L7.500,14.267 ZM12.125,15.305 C11.875,15.045 11.938,14.591 12.187,14.397 C12.437,14.202 12.875,14.202 13.062,14.462 L14.250,15.953 C14.500,16.213 14.438,16.666 14.188,16.861 C13.938,17.056 13.500,17.056 13.312,16.796 L12.125,15.305 Z"/>
</svg>
