<svg 
 xmlns="http://www.w3.org/2000/svg"
 xmlns:xlink="http://www.w3.org/1999/xlink"
 width="18px" height="18px">
<path fill-rule="evenodd"  fill="rgb(240, 123, 87)"
 d="M14.914,11.828 C13.757,11.828 12.729,12.471 12.214,13.371 L6.043,10.928 C6.171,10.543 6.236,10.157 6.236,9.771 C6.236,9.193 6.043,8.614 5.721,8.100 L9.964,5.271 C10.543,5.850 11.314,6.171 12.150,6.171 C13.821,6.171 15.236,4.757 15.236,3.086 C15.236,1.414 13.886,-0.000 12.150,-0.000 C10.479,-0.000 9.064,1.350 9.064,3.086 C9.064,3.536 9.129,3.986 9.321,4.371 L4.886,7.328 C4.371,6.943 3.729,6.750 3.086,6.750 C1.414,6.750 -0.000,8.100 -0.000,9.836 C-0.000,11.571 1.414,12.921 3.086,12.921 C3.986,12.921 4.757,12.536 5.336,11.957 L11.893,14.464 C11.828,14.593 11.828,14.785 11.828,14.914 C11.828,16.586 13.178,18.000 14.914,18.000 C16.586,18.000 18.000,16.586 18.000,14.914 C18.000,13.243 16.650,11.828 14.914,11.828 L14.914,11.828 ZM3.086,7.907 C4.178,7.907 5.078,8.743 5.078,9.900 C5.078,10.993 4.178,11.893 3.086,11.893 C1.993,11.893 1.093,10.993 1.093,9.900 C1.093,8.807 1.993,7.907 3.086,7.907 L3.086,7.907 ZM12.086,5.078 C10.993,5.078 10.093,4.178 10.093,3.086 C10.093,1.993 10.993,1.093 12.086,1.093 C13.178,1.093 14.079,1.993 14.079,3.086 C14.079,4.178 13.178,5.078 12.086,5.078 L12.086,5.078 ZM14.914,16.907 C13.821,16.907 12.921,16.007 12.921,14.914 C12.921,13.821 13.821,12.921 14.914,12.921 C16.007,12.921 16.907,13.821 16.907,14.914 C16.907,16.007 16.007,16.907 14.914,16.907 L14.914,16.907 Z"/>
</svg>
