<svg 
 xmlns="http://www.w3.org/2000/svg"
 xmlns:xlink="http://www.w3.org/1999/xlink"
 width="20px" height="20px">
<path fill-rule="evenodd"  fill="rgb(94, 201, 126)"
 d="M10.000,-0.003 C4.478,-0.003 -0.003,4.478 -0.003,10.000 C-0.003,15.522 4.478,20.003 10.000,20.003 C15.522,20.003 20.003,15.522 20.003,10.000 C20.003,4.478 15.522,-0.003 10.000,-0.003 L10.000,-0.003 ZM15.734,7.406 L9.266,13.874 C8.974,14.167 8.521,14.225 8.165,14.015 C8.105,13.974 8.039,13.927 7.985,13.874 L4.266,10.152 C3.910,9.792 3.910,9.227 4.266,8.867 C4.619,8.514 5.191,8.514 5.544,8.867 L8.627,11.954 L14.453,6.126 C14.809,5.773 15.381,5.773 15.734,6.126 C16.087,6.479 16.087,7.053 15.734,7.406 L15.734,7.406 Z"/>
</svg>
