<svg 
 xmlns="http://www.w3.org/2000/svg"
 xmlns:xlink="http://www.w3.org/1999/xlink"
 width="19px" height="19px">
<path fill-rule="evenodd"  fill="rgb(170, 170, 170)"
 d="M17.000,19.000 L2.000,19.000 C0.781,19.000 -0.000,18.257 -0.000,17.000 L0.003,2.285 C0.003,1.028 1.000,-0.000 2.220,-0.000 L10.000,-0.000 L10.000,5.000 C10.000,6.993 12.064,9.000 14.000,9.000 L19.000,9.000 L19.000,17.000 C19.000,18.257 18.219,19.000 17.000,19.000 ZM8.000,9.000 L4.000,9.000 C4.000,9.000 3.000,9.136 3.000,10.000 C3.000,10.655 3.681,11.000 4.000,11.000 L8.000,11.000 C8.319,11.000 9.000,10.749 9.000,10.000 C9.000,9.345 8.322,9.000 8.000,9.000 ZM12.000,13.000 L4.000,13.000 C3.546,13.000 3.000,13.376 3.000,14.000 C3.000,14.686 3.546,15.000 4.000,15.000 L12.000,15.000 C12.453,15.000 13.000,14.717 13.000,14.000 C13.000,13.314 12.453,13.000 12.000,13.000 ZM12.000,5.000 L12.000,-0.000 L19.000,7.000 L14.000,7.000 C12.781,6.997 12.000,6.254 12.000,5.000 Z"/>
</svg>
