<svg 
 xmlns="http://www.w3.org/2000/svg"
 xmlns:xlink="http://www.w3.org/1999/xlink"
 width="22px" height="22px">
<path fill-rule="evenodd"  fill="rgb(172, 172, 172)"
 d="M11.000,22.000 C4.934,22.000 -0.000,17.065 -0.000,11.000 C-0.000,4.934 4.934,-0.001 11.000,-0.001 C17.065,-0.001 22.000,4.934 22.000,11.000 C22.000,17.065 17.065,22.000 11.000,22.000 ZM11.000,2.000 C5.905,2.000 2.000,5.905 2.000,11.000 C2.000,16.095 5.905,20.000 11.000,20.000 C16.095,20.000 20.000,16.095 20.000,11.000 C20.000,5.905 16.095,2.000 11.000,2.000 ZM14.000,16.000 L11.000,13.000 C9.897,12.116 10.000,10.233 10.000,10.000 L10.000,6.000 C10.000,5.050 12.000,5.050 12.000,6.000 L12.000,11.000 L15.108,14.212 C15.994,15.254 14.771,16.787 14.000,16.000 Z"/>
</svg>
