<svg 
 xmlns="http://www.w3.org/2000/svg"
 xmlns:xlink="http://www.w3.org/1999/xlink"
 width="24px" height="24px">
<path fill-rule="evenodd"  fill="rgb(240, 123, 87)"
 d="M23.404,7.753 L20.806,9.253 L19.806,7.521 L22.404,6.021 C22.791,5.798 23.524,5.960 23.764,6.376 C23.766,6.380 23.767,6.382 23.770,6.387 C24.067,6.901 23.793,7.528 23.404,7.753 ZM23.764,6.376 C23.764,6.376 23.764,6.376 23.764,6.376 C23.480,5.885 23.764,6.376 23.764,6.376 ZM17.835,5.491 L16.102,4.491 L17.603,1.893 C17.826,1.507 18.542,1.281 18.958,1.521 C18.962,1.524 18.964,1.525 18.969,1.527 C19.483,1.824 19.559,2.505 19.335,2.893 L17.835,5.491 ZM18.958,1.521 C18.958,1.521 18.958,1.521 18.958,1.521 C18.467,1.237 18.958,1.521 18.958,1.521 ZM11.000,1.000 C11.000,0.553 11.507,-0.000 11.987,-0.000 C11.993,-0.000 11.994,-0.000 12.000,-0.000 C12.594,-0.000 13.000,0.551 13.000,1.000 L13.000,4.000 L11.000,4.000 L11.000,1.000 ZM4.681,2.517 C4.451,2.120 4.529,1.426 5.056,1.123 C5.582,0.821 5.067,1.117 5.067,1.117 C5.493,0.872 6.226,1.102 6.455,1.497 L7.991,4.147 L6.217,5.166 L4.681,2.517 ZM0.514,7.473 C0.116,7.244 -0.165,6.604 0.139,6.080 C0.142,6.075 0.143,6.073 0.146,6.068 C0.392,5.645 1.142,5.479 1.538,5.706 L4.198,7.236 L3.174,9.003 L0.514,7.473 ZM0.146,6.068 C0.146,6.068 0.145,6.068 0.145,6.069 C0.145,6.069 0.435,5.568 0.146,6.068 ZM4.000,15.000 C4.000,10.432 7.417,5.937 11.990,5.937 C16.562,5.937 20.000,9.433 20.000,14.000 L20.000,22.000 L5.185,22.054 L4.000,22.000 L4.000,15.000 ZM11.000,16.000 L11.000,20.000 L15.000,14.000 L12.000,14.000 L12.589,9.271 L8.000,16.000 L11.000,16.000 ZM2.906,22.063 L21.062,22.063 C21.598,22.063 22.031,22.496 22.031,23.031 C22.031,23.566 21.598,24.000 21.062,24.000 L2.906,24.000 C2.371,24.000 1.938,23.566 1.938,23.031 C1.938,22.496 2.371,22.063 2.906,22.063 Z"/>
</svg>
