<svg 
 xmlns="http://www.w3.org/2000/svg"
 xmlns:xlink="http://www.w3.org/1999/xlink"
 width="17px" height="11px">
<path fill-rule="evenodd"  fill="rgb(105, 110, 120)"
 d="M8.500,11.000 C4.651,11.000 1.361,8.724 -0.000,5.499 C1.361,2.275 4.651,-0.000 8.500,-0.000 C12.349,-0.000 15.638,2.275 17.000,5.499 C15.638,8.723 12.349,11.000 8.500,11.000 L8.500,11.000 ZM8.500,1.099 C5.300,1.099 2.545,2.900 1.256,5.499 C2.545,8.098 5.300,9.899 8.500,9.899 C11.700,9.899 14.455,8.098 15.744,5.499 C14.455,2.900 11.700,1.099 8.500,1.099 L8.500,1.099 ZM8.500,8.433 C6.811,8.433 5.442,7.120 5.442,5.500 C5.442,3.880 6.811,2.566 8.500,2.566 C10.188,2.566 11.557,3.880 11.557,5.500 C11.557,7.120 10.188,8.433 8.500,8.433 L8.500,8.433 ZM8.500,3.666 C7.445,3.666 6.589,4.487 6.589,5.500 C6.589,6.512 7.445,7.333 8.500,7.333 C9.555,7.333 10.411,6.512 10.411,5.500 C10.411,4.487 9.555,3.666 8.500,3.666 L8.500,3.666 Z"/>
</svg>
