<svg 
 xmlns="http://www.w3.org/2000/svg"
 xmlns:xlink="http://www.w3.org/1999/xlink"
 width="38px" height="38px">
<path fill-rule="evenodd"  fill="rgb(255, 178, 48)"
 d="M19.000,38.000 C8.507,38.000 -0.000,29.493 -0.000,19.000 C-0.000,8.507 8.507,-0.000 19.000,-0.000 C29.493,-0.000 38.000,8.507 38.000,19.000 C38.000,29.493 29.493,38.000 19.000,38.000 ZM17.284,12.582 C16.785,12.582 16.202,12.694 15.548,12.917 C12.492,13.964 9.960,17.464 9.855,17.609 C7.989,20.101 8.225,22.059 8.234,22.139 C8.609,25.544 11.529,27.559 16.686,27.965 C16.963,27.987 17.259,27.999 17.560,27.999 C21.069,27.999 25.356,26.435 26.763,23.448 C27.341,22.217 27.390,21.111 26.908,20.162 C26.330,19.016 25.127,18.459 24.486,18.299 C24.675,17.872 25.113,16.589 24.104,15.581 C23.667,15.142 23.045,14.921 22.255,14.921 C21.990,14.921 20.367,15.137 19.553,15.567 L19.550,15.562 L19.509,15.574 C19.531,15.475 19.553,15.370 19.575,15.251 L19.585,15.152 C19.585,13.520 18.746,12.582 17.284,12.582 ZM25.907,16.660 C25.878,16.830 25.927,17.005 26.038,17.138 C26.150,17.272 26.316,17.347 26.490,17.347 C26.777,17.347 27.020,17.141 27.071,16.859 C27.312,15.462 27.064,14.384 26.332,13.656 C25.103,12.434 23.013,12.747 22.777,12.789 C22.459,12.844 22.243,13.150 22.301,13.471 C22.328,13.626 22.413,13.762 22.542,13.852 C22.668,13.942 22.829,13.979 22.982,13.949 C23.050,13.937 24.690,13.682 25.502,14.493 C25.944,14.936 26.080,15.664 25.907,16.660 ZM28.733,11.754 C26.597,9.457 22.564,10.066 22.394,10.093 C22.187,10.127 22.012,10.268 21.937,10.464 C21.861,10.661 21.898,10.885 22.031,11.047 C22.165,11.210 22.374,11.290 22.583,11.256 C22.617,11.251 26.150,10.707 27.871,12.555 C28.843,13.602 29.069,15.268 28.539,17.505 C28.498,17.682 28.536,17.864 28.651,18.005 C28.762,18.149 28.933,18.229 29.112,18.229 C29.387,18.229 29.623,18.042 29.686,17.775 C30.313,15.132 29.992,13.104 28.733,11.754 ZM20.338,16.551 L20.328,16.507 C20.770,16.344 21.548,16.099 22.255,16.099 C22.719,16.099 23.062,16.206 23.271,16.415 C23.830,16.973 23.436,17.777 23.358,17.920 C23.288,18.013 23.067,18.350 23.200,18.751 C23.317,19.103 23.635,19.331 24.146,19.428 C24.454,19.489 25.431,19.853 25.854,20.691 C26.162,21.303 26.109,22.061 25.693,22.945 C24.510,25.461 20.620,26.816 17.560,26.816 L17.548,26.816 C17.293,26.816 17.033,26.807 16.778,26.787 C13.626,26.539 9.789,25.507 9.406,22.000 C9.403,21.983 9.250,20.378 10.808,18.299 C10.832,18.265 13.250,14.943 15.930,14.027 C16.460,13.848 16.914,13.755 17.284,13.755 C17.830,13.755 18.391,13.915 18.406,15.086 C18.391,15.186 18.370,15.275 18.348,15.375 C18.258,15.786 18.163,16.208 18.433,16.546 C18.542,16.682 18.749,16.844 19.113,16.844 C19.300,16.844 19.526,16.801 19.820,16.711 L20.338,16.551 Z"/>
</svg>
