<svg 
 xmlns="http://www.w3.org/2000/svg"
 xmlns:xlink="http://www.w3.org/1999/xlink"
 width="134px" height="126px">
<path fill-rule="evenodd"  opacity="0.18" fill="rgb(75, 197, 195)"
 d="M134.000,32.330 L115.262,51.068 C122.002,58.130 127.934,65.622 133.050,73.401 C133.375,72.827 133.684,72.248 134.000,71.671 L134.000,90.764 C133.579,89.956 133.159,89.147 132.720,88.343 C127.643,95.823 121.816,103.053 115.260,109.905 L131.355,126.000 L120.646,126.000 L109.905,115.260 C105.889,119.102 101.731,122.664 97.481,126.000 L84.666,126.000 C91.538,121.281 98.194,115.907 104.516,109.871 L104.516,109.871 L80.487,85.843 L56.458,109.872 C62.780,115.909 69.435,121.282 76.307,126.000 L63.496,126.000 C59.245,122.664 55.087,119.103 51.070,115.260 L40.330,126.000 L29.621,126.000 L45.715,109.906 C39.157,103.052 33.335,95.819 28.258,88.337 C23.525,97.021 19.811,105.966 17.133,114.972 C19.229,118.820 21.716,122.508 24.564,126.000 L15.303,126.000 C-6.403,94.987 -3.431,51.958 24.264,24.264 C54.427,-5.900 102.794,-6.756 134.000,21.686 L134.000,32.330 ZM109.871,104.516 C116.972,97.080 123.168,89.185 128.443,81.015 C123.159,72.538 116.870,64.378 109.592,56.738 L85.842,80.488 L109.871,104.516 ZM80.488,75.133 L104.237,51.384 C96.755,44.256 88.774,38.080 80.485,32.864 C72.197,38.079 64.218,44.257 56.738,51.384 L80.488,75.133 ZM51.104,104.517 L75.133,80.488 L51.384,56.738 C44.106,64.378 37.817,72.537 32.532,81.014 C37.807,89.185 44.002,97.081 51.104,104.517 ZM12.379,104.231 C15.285,96.255 18.961,88.377 23.398,80.725 C18.888,73.200 15.104,65.474 12.063,57.668 C7.041,72.764 7.148,89.191 12.379,104.231 ZM26.888,32.240 C22.680,36.905 19.191,41.988 16.418,47.346 C19.267,56.132 23.110,64.882 27.925,73.401 C33.041,65.622 38.974,58.130 45.714,51.068 L26.941,32.295 C26.923,32.277 26.906,32.258 26.888,32.240 ZM32.239,26.888 C32.258,26.906 32.277,26.923 32.296,26.941 L51.068,45.713 C57.942,39.153 65.222,33.358 72.779,28.336 C64.051,23.567 55.055,19.826 45.999,17.133 C41.135,19.783 36.512,23.035 32.239,26.888 ZM56.741,12.378 C64.801,15.313 72.759,19.038 80.485,23.538 C88.213,19.037 96.172,15.314 104.233,12.378 C88.883,7.040 72.090,7.039 56.741,12.378 ZM88.193,28.337 C95.750,33.359 103.033,39.153 109.907,45.714 L128.736,26.885 C124.462,23.032 119.837,19.783 114.974,17.133 C105.917,19.826 96.921,23.567 88.193,28.337 Z"/>
</svg>
