<svg 
 xmlns="http://www.w3.org/2000/svg"
 xmlns:xlink="http://www.w3.org/1999/xlink"
 width="40px" height="40px">
<path fill-rule="evenodd"  fill="rgb(240, 87, 87)"
 d="M20.000,40.000 C8.955,40.000 -0.000,31.045 -0.000,20.000 C-0.000,8.954 8.955,-0.000 20.000,-0.000 C31.046,-0.000 40.000,8.954 40.000,20.000 C40.000,31.045 31.046,40.000 20.000,40.000 ZM20.327,16.148 C20.327,16.147 19.452,16.529 19.676,15.838 C20.105,14.465 20.040,13.314 19.373,12.650 C17.860,11.142 13.840,12.707 10.393,16.142 C7.811,18.716 6.312,21.443 6.312,23.801 C6.312,28.311 12.116,31.054 17.794,31.054 C25.238,31.054 30.189,26.744 30.190,23.321 C30.190,21.254 28.442,20.081 26.873,19.596 C26.487,19.480 26.223,19.402 26.425,18.897 C26.861,17.802 26.907,16.856 26.433,16.182 C25.544,14.917 23.114,14.986 20.327,16.148 ZM28.073,16.711 L28.073,16.712 L28.074,16.712 C27.921,17.183 28.180,17.691 28.655,17.844 C29.128,17.996 29.637,17.737 29.790,17.264 C30.165,16.109 29.930,14.791 29.054,13.824 C28.179,12.856 26.887,12.489 25.695,12.741 C25.208,12.845 24.897,13.323 25.002,13.810 C25.106,14.294 25.585,14.605 26.072,14.499 L26.072,14.500 C26.654,14.378 27.286,14.557 27.714,15.029 C28.142,15.501 28.257,16.146 28.073,16.711 ZM31.815,11.341 C30.017,9.355 27.365,8.598 24.919,9.116 L24.918,9.116 C24.351,9.237 23.990,9.793 24.112,10.355 C24.232,10.919 24.789,11.279 25.355,11.159 C27.096,10.790 28.980,11.329 30.258,12.740 C31.535,14.152 31.882,16.076 31.335,17.762 L31.335,17.763 C31.157,18.313 31.458,18.900 32.010,19.078 C32.560,19.256 33.152,18.956 33.330,18.408 C33.330,18.407 33.330,18.404 33.331,18.403 C34.097,16.030 33.613,13.325 31.815,11.341 ZM17.765,29.068 C13.234,29.514 9.323,27.473 9.029,24.507 C8.734,21.544 12.170,18.779 16.700,18.333 C21.232,17.886 25.143,19.927 25.437,22.890 C25.731,25.856 22.296,28.621 17.765,29.068 ZM18.217,20.614 C16.062,20.055 13.624,21.126 12.688,23.019 C11.734,24.950 12.657,27.094 14.835,27.794 C17.091,28.519 19.751,27.408 20.676,25.324 C21.589,23.287 20.449,21.189 18.217,20.614 ZM17.232,23.986 C16.963,23.875 16.878,23.573 17.031,23.308 C17.189,23.044 17.526,22.915 17.795,23.021 C18.068,23.121 18.167,23.427 18.015,23.698 C17.857,23.968 17.506,24.099 17.232,23.986 ZM14.487,26.226 C13.791,25.910 13.585,25.101 14.024,24.421 C14.456,23.745 15.363,23.443 16.065,23.736 C16.775,24.038 17.002,24.841 16.571,25.546 C16.133,26.242 15.195,26.548 14.487,26.226 Z"/>
</svg>
