<svg 
 xmlns="http://www.w3.org/2000/svg"
 xmlns:xlink="http://www.w3.org/1999/xlink"
 width="141px" height="137px">
<path fill-rule="evenodd"  opacity="0.18" fill="rgb(255, 178, 48)"
 d="M141.000,12.790 C125.572,2.349 104.741,9.460 104.398,9.493 C102.690,10.009 100.500,9.170 99.984,7.469 C99.469,5.769 100.311,3.586 102.018,3.071 C102.951,2.658 123.580,-4.117 141.000,4.980 L141.000,12.790 ZM21.141,100.550 C19.292,81.471 39.714,63.734 66.525,61.136 C93.335,58.538 116.784,72.023 118.633,91.103 C120.482,110.183 100.059,127.919 73.248,130.517 C46.438,133.115 22.990,119.631 21.141,100.550 ZM111.669,91.778 C110.224,76.861 89.830,65.881 67.197,68.074 C44.565,70.267 26.659,84.958 28.104,99.876 C29.550,114.792 49.944,125.772 72.576,123.579 C95.208,121.386 113.115,106.694 111.669,91.778 ZM59.441,96.839 C58.884,91.091 63.109,85.978 68.878,85.419 C74.647,84.860 79.775,89.066 80.332,94.815 C80.889,100.562 76.664,105.675 70.895,106.234 C65.126,106.793 59.998,102.586 59.441,96.839 ZM130.013,30.823 C124.667,26.438 116.412,28.289 116.412,28.289 C114.704,28.804 112.829,27.586 112.279,25.537 C111.728,23.490 112.987,21.967 114.695,21.451 C115.043,21.417 126.365,18.570 134.383,25.146 C137.619,27.619 139.782,31.132 141.000,35.547 L141.000,49.985 C140.532,50.317 139.951,50.519 139.307,50.581 L138.960,50.615 C137.185,50.437 135.624,48.838 135.456,47.103 C135.761,39.370 133.830,33.954 130.013,30.823 ZM75.594,136.593 C83.602,135.817 91.544,134.347 99.384,131.837 C128.874,122.327 138.139,105.256 141.000,95.480 L141.000,112.936 C134.761,121.545 124.365,130.638 106.993,137.000 L70.582,137.000 C72.243,136.900 73.912,136.772 75.594,136.593 ZM59.727,23.627 C61.086,23.145 62.479,23.010 63.871,22.875 C77.450,21.559 81.715,36.553 79.489,46.223 C90.857,40.219 99.393,37.642 106.009,37.001 C127.945,34.875 125.570,57.515 123.288,62.989 C131.360,63.209 137.021,65.389 141.000,68.383 L141.000,80.935 C140.709,80.153 140.353,79.346 139.908,78.536 C136.899,72.875 130.992,69.946 122.187,69.749 C120.097,69.951 117.873,68.766 116.627,66.785 C115.415,65.153 115.179,62.724 116.022,60.541 C116.865,58.359 117.866,50.558 115.026,46.631 C114.577,45.624 112.600,43.365 105.985,44.006 C100.066,44.580 91.911,47.471 82.217,52.612 C81.554,53.027 80.510,53.128 79.814,53.195 C78.073,53.364 76.298,53.185 74.771,51.933 C72.862,50.367 71.863,47.313 72.324,44.816 C73.628,40.138 72.394,34.655 70.002,31.736 C68.790,30.102 66.981,29.577 64.544,29.813 C63.499,29.914 62.455,30.016 61.444,30.463 C48.481,34.521 0.382,64.044 7.549,105.369 L7.583,105.716 C9.248,122.904 30.590,135.310 57.758,137.000 L27.381,137.000 C12.447,130.429 2.268,119.785 0.967,106.357 C-6.884,61.597 42.654,28.783 59.727,23.627 Z"/>
</svg>
