<svg 
 xmlns="http://www.w3.org/2000/svg"
 xmlns:xlink="http://www.w3.org/1999/xlink"
 width="22px" height="18px">
<path fill-rule="evenodd"  fill="rgb(255, 255, 255)"
 d="M18.542,15.429 L19.067,17.222 L17.120,16.140 C16.409,16.325 15.698,16.510 14.987,16.510 C11.587,16.510 8.929,14.192 8.929,11.349 C8.929,8.505 11.587,6.187 14.987,6.187 C18.202,6.187 21.045,8.505 21.045,11.349 C21.045,12.925 19.994,14.347 18.542,15.429 ZM13.132,8.969 C12.706,8.969 12.360,9.315 12.360,9.741 C12.360,10.168 12.706,10.514 13.132,10.514 C13.559,10.514 13.905,10.168 13.905,9.741 C13.905,9.315 13.559,8.969 13.132,8.969 ZM17.444,9.134 C17.205,8.996 16.911,8.996 16.672,9.134 C16.433,9.272 16.285,9.527 16.285,9.803 C16.285,10.079 16.433,10.334 16.672,10.473 C16.911,10.610 17.205,10.610 17.444,10.473 C17.683,10.334 17.831,10.079 17.831,9.803 C17.831,9.527 17.683,9.272 17.444,9.134 ZM8.558,11.410 C8.558,11.936 8.651,12.430 8.774,12.894 C8.527,12.894 8.311,12.925 8.094,12.925 C7.198,12.925 6.487,12.739 5.591,12.554 L3.087,13.791 L3.798,11.658 C2.005,10.421 0.954,8.814 0.954,6.836 C0.954,3.436 4.169,0.778 8.094,0.778 C11.587,0.778 14.678,2.910 15.296,5.785 C15.080,5.754 14.833,5.754 14.616,5.754 C11.216,5.754 8.558,8.289 8.558,11.410 ZM5.714,3.683 C5.100,3.683 4.602,4.182 4.602,4.796 C4.602,5.411 5.100,5.909 5.714,5.909 C6.329,5.909 6.827,5.411 6.827,4.796 C6.827,4.182 6.329,3.683 5.714,3.683 ZM11.247,3.801 C10.903,3.603 10.479,3.603 10.134,3.801 C9.790,4.000 9.578,4.367 9.578,4.765 C9.578,5.163 9.790,5.530 10.134,5.729 C10.479,5.927 10.903,5.927 11.247,5.729 C11.591,5.530 11.804,5.163 11.804,4.765 C11.804,4.367 11.591,4.000 11.247,3.801 Z"/>
</svg>
