<svg id="weibo_nor" xmlns="http://www.w3.org/2000/svg" width="22" height="20" viewBox="0 0 22 20">
  <metadata><?xpacket begin="﻿" id="W5M0MpCehiHzreSzNTczkc9d"?>
<x:xmpmeta xmlns:x="adobe:ns:meta/" x:xmptk="Adobe XMP Core 5.6-c142 79.160924, 2017/07/13-01:06:39        ">
   <rdf:RDF xmlns:rdf="http://www.w3.org/1999/02/22-rdf-syntax-ns#">
      <rdf:Description rdf:about=""/>
   </rdf:RDF>
</x:xmpmeta>
                                                                                                    
                                                                                                    
                                                                                                    
                                                                                                    
                                                                                                    
                                                                                                    
                                                                                                    
                                                                                                    
                                                                                                    
                                                                                                    
                                                                                                    
                                                                                                    
                                                                                                    
                                                                                                    
                                                                                                    
                                                                                                    
                                                                                                    
                                                                                                    
                                                                                                    
                                                                                                    
                           
<?xpacket end="w"?></metadata>
<defs>
    <style>
      .cls-1 {
        fill: none;
        stroke: #b5b5b5;
        stroke-linecap: round;
        stroke-linejoin: round;
        stroke-width: 1px;
      }

      .cls-1, .cls-2 {
        fill-rule: evenodd;
      }

      .cls-2 {
        fill: #b5b5b5;
      }
    </style>
  </defs>
  <path id="形状_123" data-name="形状 123" class="cls-1" d="M1760,506l3-3,2,3,3-3" transform="translate(-1756 -492)"/>
  <path id="形状_122" data-name="形状 122" class="cls-2" d="M1772.25,492a0.55,0.55,0,0,0,0,1.1,4.855,4.855,0,0,1,4.7,4.95,0.526,0.526,0,1,0,1.05,0,5.942,5.942,0,0,0-5.75-6.05h0Zm0,3.85a0.55,0.55,0,0,0,0,1.1,1.087,1.087,0,0,1,1.05,1.1,0.53,0.53,0,1,0,1.06,0,2.176,2.176,0,0,0-2.11-2.2h0Zm-0.2,5.75a3,3,0,0,0-.09-2.6,2.385,2.385,0,0,0-2.16-1,7.4,7.4,0,0,0-2.68.6,2.7,2.7,0,0,0-.48-2.55,2.127,2.127,0,0,0-1.58-.65c-1.63,0-3.88,1.35-5.85,3.5-2.06,2.25-3.21,4.6-3.21,6.65,0,4.05,4.6,6.45,9.06,6.45,5.75,0,9.77-3.6,9.77-6.85a3.79,3.79,0,0,0-2.78-3.55h0Zm-6.99,9.3c-5.04,0-8.05-2.75-8.05-5.35,0-1.75,1-3.85,2.87-5.85,1.73-1.9,3.79-3.15,5.13-3.15a0.954,0.954,0,0,1,.81.3,2.174,2.174,0,0,1,.1,2.05,0.872,0.872,0,0,0,.09.75,0.728,0.728,0,0,0,.58.3,0.964,0.964,0,0,0,.53-0.15,6.426,6.426,0,0,1,2.63-.7,1.606,1.606,0,0,1,1.3.5,2.145,2.145,0,0,1-.05,1.7,1.05,1.05,0,0,0,0,.8,0.827,0.827,0,0,0,.67.5,2.8,2.8,0,0,1,2.11,2.5c0,2.45-3.31,5.8-8.72,5.8h0Zm0,0" transform="translate(-1756 -492)"/>
</svg>
