<svg 
 xmlns="http://www.w3.org/2000/svg"
 xmlns:xlink="http://www.w3.org/1999/xlink"
 width="32px" height="32px">
<path fill-rule="evenodd"  fill="rgb(80, 182, 116)"
 d="M16.000,32.000 C7.156,32.000 -0.000,24.843 -0.000,16.000 C-0.000,7.156 7.156,-0.000 16.000,-0.000 C24.844,-0.000 32.000,7.156 32.000,16.000 C32.000,24.843 24.844,32.000 16.000,32.000 ZM12.823,7.014 C8.531,7.014 5.016,9.919 5.016,13.635 C5.016,15.797 6.165,17.554 8.126,18.905 L7.348,21.236 L10.086,19.885 C11.066,20.088 11.843,20.290 12.823,20.290 C13.060,20.290 13.296,20.257 13.567,20.257 C13.431,19.750 13.330,19.209 13.330,18.635 C13.330,15.223 16.236,12.453 19.954,12.453 C20.190,12.453 20.461,12.453 20.697,12.486 C20.021,9.345 16.642,7.014 12.823,7.014 ZM20.359,12.926 C16.642,12.926 13.736,15.459 13.736,18.567 C13.736,21.675 16.642,24.209 20.359,24.209 C21.137,24.209 21.914,24.007 22.691,23.804 L24.820,24.986 L24.246,23.027 C25.834,21.844 26.983,20.290 26.983,18.567 C26.983,15.459 23.874,12.926 20.359,12.926 ZM23.046,17.610 C22.785,17.760 22.463,17.760 22.201,17.610 C21.940,17.459 21.779,17.180 21.779,16.878 C21.779,16.576 21.940,16.298 22.201,16.147 C22.463,15.996 22.785,15.996 23.046,16.147 C23.308,16.298 23.469,16.576 23.469,16.878 C23.469,17.180 23.308,17.459 23.046,17.610 ZM18.332,17.655 C17.865,17.655 17.487,17.277 17.487,16.811 C17.487,16.344 17.865,15.966 18.332,15.966 C18.798,15.966 19.177,16.344 19.177,16.811 C19.177,17.277 18.798,17.655 18.332,17.655 ZM16.270,12.425 C15.894,12.642 15.430,12.642 15.053,12.425 C14.677,12.207 14.445,11.806 14.445,11.372 C14.445,10.937 14.677,10.536 15.053,10.318 C15.430,10.101 15.894,10.101 16.270,10.318 C16.647,10.536 16.879,10.937 16.879,11.372 C16.879,11.806 16.647,12.207 16.270,12.425 ZM10.221,12.622 C9.549,12.622 9.004,12.077 9.004,11.405 C9.004,10.734 9.549,10.189 10.221,10.189 C10.893,10.189 11.438,10.734 11.438,11.405 C11.438,12.077 10.893,12.622 10.221,12.622 Z"/>
</svg>
