<svg 
 xmlns="http://www.w3.org/2000/svg"
 xmlns:xlink="http://www.w3.org/1999/xlink"
 width="40px" height="40px">
<path fill-rule="evenodd"  fill="rgb(80, 182, 116)"
 d="M20.000,40.000 C8.945,40.000 -0.000,31.054 -0.000,20.000 C-0.000,8.945 8.945,-0.000 20.000,-0.000 C31.055,-0.000 40.000,8.945 40.000,20.000 C40.000,31.054 31.055,40.000 20.000,40.000 ZM16.582,10.327 C11.964,10.327 8.182,13.454 8.182,17.454 C8.182,19.782 9.418,21.673 11.527,23.127 L10.691,25.636 L13.636,24.182 C14.691,24.400 15.527,24.618 16.582,24.618 C16.836,24.618 17.091,24.582 17.382,24.582 C17.236,24.036 17.127,23.454 17.127,22.836 C17.127,19.164 20.255,16.182 24.255,16.182 C24.509,16.182 24.800,16.182 25.054,16.218 C24.327,12.836 20.691,10.327 16.582,10.327 ZM24.691,16.691 C20.691,16.691 17.564,19.418 17.564,22.763 C17.564,26.109 20.691,28.836 24.691,28.836 C25.527,28.836 26.364,28.618 27.200,28.400 L29.491,29.673 L28.873,27.564 C30.582,26.291 31.818,24.618 31.818,22.763 C31.818,19.418 28.473,16.691 24.691,16.691 ZM27.582,21.733 C27.300,21.895 26.954,21.895 26.673,21.733 C26.391,21.570 26.218,21.270 26.218,20.945 C26.218,20.621 26.391,20.320 26.673,20.158 C26.954,19.996 27.300,19.996 27.582,20.158 C27.863,20.320 28.036,20.621 28.036,20.945 C28.036,21.270 27.863,21.570 27.582,21.733 ZM22.509,21.782 C22.007,21.782 21.600,21.375 21.600,20.873 C21.600,20.370 22.007,19.964 22.509,19.964 C23.011,19.964 23.418,20.370 23.418,20.873 C23.418,21.375 23.011,21.782 22.509,21.782 ZM20.291,16.152 C19.886,16.386 19.387,16.386 18.982,16.152 C18.577,15.918 18.327,15.486 18.327,15.018 C18.327,14.550 18.577,14.118 18.982,13.884 C19.387,13.651 19.886,13.651 20.291,13.884 C20.696,14.118 20.945,14.550 20.945,15.018 C20.945,15.486 20.696,15.918 20.291,16.152 ZM13.782,16.364 C13.059,16.364 12.473,15.777 12.473,15.054 C12.473,14.332 13.059,13.745 13.782,13.745 C14.505,13.745 15.091,14.332 15.091,15.054 C15.091,15.777 14.505,16.364 13.782,16.364 Z"/>
</svg>
