<svg xmlns="http://www.w3.org/2000/svg" width="15" height="15" viewBox="0 0 15 15">
  <metadata><?xpacket begin="﻿" id="W5M0MpCehiHzreSzNTczkc9d"?>
<x:xmpmeta xmlns:x="adobe:ns:meta/" x:xmptk="Adobe XMP Core 5.6-c142 79.160924, 2017/07/13-01:06:39        ">
   <rdf:RDF xmlns:rdf="http://www.w3.org/1999/02/22-rdf-syntax-ns#">
      <rdf:Description rdf:about=""/>
   </rdf:RDF>
</x:xmpmeta>
                                                                                                    
                                                                                                    
                                                                                                    
                                                                                                    
                                                                                                    
                                                                                                    
                                                                                                    
                                                                                                    
                                                                                                    
                                                                                                    
                                                                                                    
                                                                                                    
                                                                                                    
                                                                                                    
                                                                                                    
                                                                                                    
                                                                                                    
                                                                                                    
                                                                                                    
                                                                                                    
                           
<?xpacket end="w"?></metadata>
<defs>
    <style>
      .cls-1 {
        fill: #f07b57;
        fill-rule: evenodd;
      }
    </style>
  </defs>
  <path id="yq_sel" class="cls-1" d="M40,361H29a1.924,1.924,0,0,1-2-2v-7a2.111,2.111,0,0,1,2-2H40a1.867,1.867,0,0,1,2,2v7A1.9,1.9,0,0,1,40,361Zm-1.4-6.533a1.027,1.027,0,0,0-1.435-.11l-1.624,1.374-2.368-1.246a1.024,1.024,0,0,0-1.189.167l-1.569,1.507a1,1,0,0,0-.02,1.421,1.028,1.028,0,0,0,1.44.02l1.037-1,2.325,1.224a1.03,1.03,0,0,0,1.141-.123l2.152-1.82A1,1,0,0,0,38.6,354.466ZM31,363h7a1,1,0,0,1,0,2H31A1,1,0,1,1,31,363Z" transform="translate(-27 -350)"/>
</svg>
