<svg 
 xmlns="http://www.w3.org/2000/svg"
 xmlns:xlink="http://www.w3.org/1999/xlink"
 width="40px" height="40px">
<path fill-rule="evenodd"  fill="rgb(71, 158, 219)"
 d="M20.000,40.000 C8.955,40.000 -0.000,31.046 -0.000,20.000 C-0.000,8.954 8.955,-0.000 20.000,-0.000 C31.045,-0.000 40.000,8.954 40.000,20.000 C40.000,31.046 31.045,40.000 20.000,40.000 ZM20.376,14.527 C20.376,14.527 20.335,12.988 19.669,12.988 L14.054,12.988 L14.926,10.451 L14.927,10.450 C14.927,10.450 13.513,10.532 13.014,11.406 C12.513,12.280 10.892,16.773 10.892,16.773 C10.892,16.773 11.433,17.022 12.348,16.356 C13.264,15.691 13.555,14.526 13.555,14.526 L15.218,14.444 L15.260,19.185 C15.260,19.185 12.389,19.144 11.806,19.185 C11.225,19.226 10.892,20.765 10.892,20.765 L15.260,20.765 C15.260,20.765 14.886,23.386 13.762,25.300 C12.639,27.214 10.517,28.711 10.517,28.711 C10.517,28.711 12.057,29.335 13.554,28.461 C15.052,27.588 16.156,23.746 16.156,23.746 L19.669,28.045 C19.669,28.045 19.989,25.999 19.612,25.421 C19.234,24.843 17.182,22.519 17.182,22.519 L16.285,23.310 L16.924,20.766 L20.750,20.766 C20.750,20.766 20.750,19.268 20.002,19.184 C19.253,19.103 16.924,19.184 16.924,19.184 L16.924,14.527 L20.376,14.527 ZM29.439,12.840 L21.567,12.840 L21.567,26.846 L22.974,26.846 L23.485,28.604 L25.960,26.846 L29.439,26.846 L29.439,12.840 ZM23.664,25.255 L23.234,25.255 L23.234,14.400 L27.839,14.400 L27.839,25.255 L26.203,25.255 L24.118,26.827 L23.664,25.255 Z"/>
</svg>
